<svg width="1440" height="1013" viewBox="0 0 1440 1013" fill="none" xmlns="http://www.w3.org/2000/svg">
<path d="M729.12 8.14433C740.64 13.7763 751.2 17.3603 752.4 16.0803C755.28 12.7523 739.2 4.81633 722.4 0.97633C711.36 -1.32767 712.8 0.208329 729.12 8.14433Z" fill="black"/>
<path d="M789.12 6.60839C791.28 8.65639 798.48 10.9604 805.68 11.4724C833.04 13.7764 847.68 16.5924 856.8 21.7124C862.08 24.5284 877.2 28.3684 890.4 29.9044L914.4 32.7204L895.2 23.7604C869.28 11.4724 780.24 -3.11961 789.12 6.60839Z" fill="black"/>
<path d="M1310.4 21.9684C1265.52 48.0804 1233.84 60.6244 1213.92 59.6004C1203.36 59.3444 1194 62.1604 1190.4 66.7684C1187.04 70.8644 1173.6 77.7764 1160.4 82.1284C1139.52 88.5284 1116.72 102.608 1055.04 147.152C1047.84 152.272 1040.16 156.368 1038 156.368C1035.6 156.368 1023.6 163.28 1011.36 171.728C990.48 185.808 986.88 186.576 966 182.224C953.52 179.664 925.2 176.08 903.36 174.544C877.92 172.752 856.8 168.144 845.04 161.744C820.56 148.432 794.64 152.016 793.68 169.168C793.2 176.848 796.8 182.736 804.48 186.32C817.92 192.976 819.6 188.624 807.6 179.152C800.64 173.52 804.24 172.752 830.4 175.056C847.68 176.592 863.28 180.432 865.2 183.76C867.6 188.112 868.56 187.856 868.8 183.248C868.8 175.312 886.56 174.8 888.96 182.48C890.4 187.344 904.8 190.672 930.24 191.952C934.08 191.952 935.04 194.768 932.88 198.608C930 203.728 930.96 203.728 936.72 198.608C940.8 195.28 945.6 193.744 947.28 195.792C951.84 200.656 974.4 200.912 974.4 196.304C974.4 194 977.76 192.208 981.6 192.208C991.44 192.208 990.72 200.912 980.4 207.056C972.96 211.664 973.2 211.92 982.56 211.408C988.32 210.896 991.92 208.848 990.48 206.544C989.28 204.24 992.64 202.192 998.16 201.68C1012.32 200.912 1014.48 200.4 1022.4 195.024C1045.92 178.896 1074 167.12 1081.68 169.68C1087.68 171.728 1089.6 170.96 1087.44 167.12C1085.76 164.048 1086.48 161.488 1089.36 161.488C1092 161.488 1094.4 158.672 1094.4 155.088C1094.4 150.992 1101.84 148.688 1116.48 148.688C1128.48 148.944 1139.52 147.152 1140.72 144.848C1141.92 142.8 1139.04 141.008 1134.24 140.752C1126.08 140.752 1126.08 140.496 1134.24 135.376C1138.8 132.56 1145.04 130.768 1147.92 131.792C1150.8 132.816 1159.2 127.952 1166.4 120.784C1187.52 100.048 1194 95.4404 1196.88 98.5124C1198.56 100.048 1202.64 99.2804 1206 96.4644C1209.36 93.9044 1219.68 91.8564 1228.8 92.1124C1238.16 92.1124 1248.48 89.5524 1251.84 85.9684C1260 77.7764 1273.68 77.5204 1269.12 85.7124C1267.2 89.0404 1274.16 84.1764 1284.72 75.2164C1299.12 62.9284 1307.52 59.3444 1317.12 61.1364C1325.76 62.6724 1331.04 61.1364 1332.72 56.2724C1334.16 52.1764 1337.52 48.8484 1339.92 48.8484C1342.56 48.8484 1343.28 51.1524 1341.6 53.9684C1339.92 56.7844 1340.88 59.0884 1343.76 59.0884C1346.4 59.0884 1348.8 57.0404 1348.8 54.4804C1348.8 47.3124 1387.44 48.5924 1390.08 56.0164C1391.52 59.6004 1398.96 61.6484 1408.56 60.8804C1419.12 60.1124 1425.6 62.1604 1427.52 67.0244C1432.56 81.3604 1440 74.1924 1440 55.2484C1440 34.5124 1427.28 22.9924 1395.6 15.0564C1388.16 13.2644 1381.2 9.93641 1379.76 7.37641C1373.76 -2.86359 1340.64 4.30441 1310.4 21.9684Z" fill="black"/>
<path d="M696 42.1924C670.8 46.8004 609.36 65.4884 607.2 69.3284C606 71.6324 596.16 70.0964 585.36 66.0004C563.76 58.3204 554.16 57.2964 525.6 61.3924C515.04 62.6724 492.48 65.2324 475.2 66.7684C458.16 68.3044 436.56 70.3524 427.2 71.1204C397.92 73.6804 326.4 95.9524 329.76 101.584C331.44 104.4 330.48 105.168 327.6 103.376C324.72 101.584 307.68 102.608 289.68 105.936C271.44 109.264 247.2 112.08 235.2 112.592C201.84 113.872 164.88 120.784 138.24 130.768C119.52 137.68 110.4 138.704 96.72 134.608C59.52 123.856 -1.92 142.288 0.959999 163.28C2.4 174.032 18.24 178.896 24.24 170.448C27.84 165.328 73.2 163.536 80.4 168.4C84.24 170.704 87.6 169.168 89.28 164.304C91.68 157.904 93.84 157.392 98.88 162C102.48 165.072 109.68 166.608 114.72 165.328C121.2 163.536 123.36 164.816 121.68 169.424C119.52 175.056 121.44 175.056 131.28 170.192C137.76 166.864 142.08 162.256 140.64 159.952C139.44 157.648 146.4 159.44 156 163.792C171.36 170.448 173.52 170.704 171.12 164.048C167.76 155.088 196.32 145.616 218.4 148.432C226.32 149.456 234.96 148.432 237.6 146.128C240.24 143.824 250.08 142.544 259.2 143.568C268.56 144.336 280.08 142.8 284.88 139.984C290.88 136.656 295.44 136.656 298.8 140.24C302.4 144.08 308.88 143.312 319.92 138.448C328.8 134.608 336 132.816 336 134.864C336 136.912 338.16 134.864 340.8 130.768C344.88 124.112 345.36 124.368 345.6 132.048C345.6 136.912 348.96 141.008 353.04 141.008C357.6 141.008 359.28 138.704 357.12 135.12C354.72 131.024 355.92 130.512 360.48 133.84C368.16 139.216 388.8 140.496 388.8 135.632C388.8 133.84 391.44 132.048 394.8 131.792C408.48 130 424.8 126.928 424.8 125.904C424.8 125.392 433.2 123.856 443.28 122.576C465.6 119.76 518.16 94.9284 527.28 83.1524C530.88 78.2884 535.92 75.9844 538.32 77.5204C540.72 79.0564 546 77.7764 549.84 74.1924C558.24 66.7684 559.2 74.9604 551.04 83.6644C547.92 86.9924 546.96 89.8084 549.12 89.8084C551.28 89.8084 550.8 92.8804 547.68 96.9764C543.36 102.352 543.84 104.656 549.12 106.96C553.92 108.752 555.36 107.472 553.92 102.864C552.48 99.0244 553.92 94.1604 557.28 92.1124C560.64 89.8084 561.84 90.3204 560.16 93.3924C558.48 96.2084 562.56 101.072 569.28 104.4C588.48 113.872 594 111.056 578.4 100.048C570.48 94.4164 566.88 89.8084 570.24 89.8084C574.08 89.8084 575.04 87.2484 573.12 83.4084C571.2 79.8244 574.32 81.3604 580.08 86.7364C585.6 92.1124 596.88 96.2084 604.8 95.9524C612.72 95.6964 619.2 97.7444 619.2 100.304C619.2 102.864 622.56 103.632 626.4 101.84C630.72 100.048 633.6 101.84 633.6 106.704C633.6 110.8 637.44 115.664 642 117.456C669.84 127.952 677.04 129.488 679.44 125.136C681.12 122.32 680.64 120.528 678.24 121.04C669.36 122.576 662.4 120.272 662.4 115.408C662.4 112.336 668.16 111.312 675.6 112.848C683.76 114.384 681.36 112.592 669.6 107.728C645.12 97.7444 609.6 77.7764 609.6 74.1924C609.6 72.6564 617.76 71.3764 627.6 71.1204C637.44 70.8644 663.84 69.3284 685.92 67.5364C708 66.0004 728.4 66.0004 731.28 67.7924C734.16 69.8404 742.8 71.8884 750.48 72.9124C758.4 73.6804 767.04 76.4964 769.92 79.0564C779.52 87.5044 832.32 96.7204 876 97.4884C942.96 99.0244 946.56 99.2804 942.72 105.936C940.56 109.52 941.52 110.544 944.64 108.24C947.76 106.448 959.04 107.216 969.84 110.288C984.24 114.384 991.2 114.384 996 110.288C1000.08 106.704 1003.44 106.448 1005.36 109.776C1009.2 116.432 1057.68 112.848 1059.84 105.68C1060.8 102.608 1067.28 99.7924 1074.48 99.5364L1087.2 99.2804L1072.8 94.1604C1064.88 91.6004 1045.92 90.5764 1030.56 92.1124C1010.88 93.9044 998.4 92.6244 989.04 87.2484C967.68 75.4724 905.52 72.6564 870.96 82.1284C841.92 89.8084 840.96 89.8084 813.12 76.7524C797.52 69.3284 780.48 61.3924 775.2 58.8324C762.96 53.2004 714.24 38.3524 710.64 39.3764C709.2 39.6324 702.72 40.9124 696 42.1924ZM496.08 81.8724C479.04 94.6724 437.28 110.288 420.24 110.288C411.12 110.288 398.16 112.592 391.2 115.408C378.24 120.784 336 112.848 336 105.168C336 103.12 350.64 100.048 368.4 98.2564C406.56 94.1604 420.96 91.6004 461.76 82.3844C502.56 72.9124 508.32 72.6564 496.08 81.8724Z" fill="black"/>
<path d="M681.6 99.7924C681.6 102.352 686.16 105.936 691.92 107.984C700.08 110.8 700.8 112.336 695.52 116.432C690.48 120.016 691.68 120.784 699.6 118.992C705.6 117.456 710.4 118.48 710.4 121.04C710.4 126.672 734.64 126.928 742.8 121.296C746.88 118.736 741.36 113.616 725.76 106.192C701.52 94.4164 681.6 91.6004 681.6 99.7924Z" fill="black"/>
<path d="M810.48 107.472C809.28 109.008 801.36 110.544 792.96 111.312C784.56 111.824 777.6 114.384 777.6 116.432C777.6 118.736 772.8 120.528 766.8 120.528C752.88 120.784 741.12 128.208 748.08 132.816C754.56 137.168 777.6 131.024 777.6 125.136C777.6 118.992 800.16 119.248 803.76 125.136C805.2 127.696 803.76 131.024 800.4 132.56C797.04 134.352 800.88 134.096 808.8 132.56C816.72 130.768 825.12 127.44 827.76 125.136C830.16 122.832 834.96 123.344 838.56 126.416C843.12 130.512 844.8 130.512 844.8 126.16C844.8 118.992 859.2 118.992 868.8 126.16C874.56 130.512 873.84 131.28 865.2 129.232C858.72 127.696 855.6 128.72 857.28 131.536C858.96 134.352 865.2 135.376 871.44 133.84C884.64 130.256 898.56 135.12 894.72 141.776C893.28 144.592 896.88 145.104 903.6 143.312C911.28 141.264 918.24 143.056 923.28 148.688C927.6 153.296 931.2 155.6 931.2 153.552C931.2 151.504 933.84 152.272 937.2 155.088C940.56 157.904 953.52 160.464 966.24 160.72C978.72 160.976 991.68 162.512 995.04 164.304C998.16 165.84 996.72 163.792 991.44 159.184C986.4 154.832 978.72 151.248 974.16 151.248C969.84 151.248 953.52 144.592 937.92 136.656C903.6 118.992 818.16 99.5364 810.48 107.472Z" fill="black"/>
<path d="M470.4 125.136C470.4 128.208 472.8 130.768 475.44 130.768C478.32 130.768 479.52 135.376 477.84 141.008C470.88 167.632 470.64 174.032 477.36 158.928C481.2 150.48 484.56 145.36 484.56 147.408C484.8 149.2 490.56 148.688 497.52 145.872C507.36 141.776 512.16 142.544 519.12 149.456C523.92 154.064 529.44 156.368 531.12 154.576C533.04 152.784 531.6 151.248 528 151.248C524.4 151.248 522.96 149.712 524.64 147.92C529.68 142.544 508.32 125.648 496.56 125.648C490.56 125.648 482.16 124.368 478.08 122.576C473.76 120.784 470.4 122.064 470.4 125.136Z" fill="black"/>
<path d="M449.28 130C447.84 132.56 438.48 135.888 428.4 137.68C408.24 141.008 389.28 153.296 394.8 159.44C396.72 161.488 402.48 159.184 407.52 154.32C412.56 149.456 423.6 144.848 432 144.08C440.16 143.568 448.8 139.984 450.96 136.4C453.6 131.536 455.76 131.28 458.16 135.376C462.96 143.824 470.4 142.288 467.28 133.328C464.4 124.88 453.36 123.088 449.28 130Z" fill="black"/>
<path d="M748.8 152.272C742.32 155.344 730.32 157.392 722.4 156.88C711.12 156.112 709.68 157.136 715.2 161.232C721.68 165.84 718.8 168.912 709.2 167.12C707.28 166.864 705.6 169.936 705.6 174.288C705.6 183.76 700.08 184.016 691.44 175.568C687.12 171.216 686.16 171.216 688.08 175.056C690 178.64 687.6 182.224 682.8 183.504C675.6 185.552 675.84 186.064 684 186.576C692.88 187.344 692.64 188.112 681.6 197.328C669.84 207.056 669.84 207.312 680.16 207.568C685.92 207.568 691.92 205.264 693.36 202.704C695.04 199.888 699.36 199.12 703.2 200.656C714.96 205.264 781.92 163.536 782.4 150.992C782.4 146.128 761.04 146.896 748.8 152.272Z" fill="black"/>
<path d="M1108.8 176.848C1102.8 181.2 1103.04 182.48 1111.44 184.784C1125.84 189.136 1133.76 213.712 1132.08 248.528C1130.4 279.76 1138.08 291.792 1144.08 267.728C1156.32 219.6 1133.04 159.952 1108.8 176.848Z" fill="black"/>
<path d="M484.56 200.144C481.2 204.496 480.48 207.824 482.88 207.312C490.56 205.776 508.8 213.712 508.8 218.832C508.8 221.392 510.72 222.16 513.36 220.624C515.76 219.088 519.12 219.856 520.8 222.928C522.48 225.744 519.84 228.304 515.04 228.56C510.24 228.816 513.84 231.12 522.96 233.936C535.44 237.776 537.84 240.08 532.56 243.664C527.28 247.248 527.04 248.272 531.84 248.528C535.44 248.528 536.64 251.088 534.72 254.416C532.56 258.256 533.52 259.024 537.12 256.464C540.48 254.416 546.72 256.464 551.52 261.072C559.68 268.752 561.12 268.496 571.68 258.512C577.92 252.624 580.56 249.296 577.2 251.088C573.36 253.136 571.2 250.576 571.2 243.92C571.2 238.288 568.8 232.144 565.68 230.096C562.32 228.048 561.36 228.816 563.28 232.144C565.2 234.96 564.48 239.056 561.6 240.848C558.96 242.64 556.8 240.336 556.8 235.984C556.8 231.632 554.4 228.048 551.52 228.048C540.48 228.048 499.2 204.752 499.2 198.608C499.2 189.904 492 190.672 484.56 200.144Z" fill="black"/>
<path d="M643.2 197.328C636.72 199.632 633.36 201.936 636 202.192C644.4 203.728 622.08 211.92 608.64 212.432C601.68 212.432 594.24 215.248 592.32 218.576C590.16 222.416 591.12 223.184 595.68 220.88C599.28 218.832 598.08 220.624 592.8 225.232C583.92 233.168 584.4 233.424 602.4 230.352C625.44 226.768 655.68 210.896 654 203.216C653.52 200.144 655.92 198.864 659.52 200.4C663.12 201.936 667.68 200.656 669.36 197.584C672.96 191.44 660.96 191.184 643.2 197.328Z" fill="black"/>
<path d="M1419.6 195.792C1406.16 198.096 1400.88 207.568 1413.12 207.568C1416.96 207.568 1423.2 208.848 1427.04 210.384C1431.36 212.176 1434.96 209.36 1436.4 202.704C1437.84 197.072 1437.6 192.464 1435.92 192.976C1434.24 193.488 1426.8 194.768 1419.6 195.792Z" fill="black"/>
<path d="M1224 214.992C1224 221.904 1221.84 228.816 1219.2 230.608C1216.56 232.4 1214.4 231.12 1214.4 228.048C1214.4 224.976 1212 223.952 1209.36 225.744C1206.48 227.536 1205.52 232.656 1206.96 237.008C1209.12 243.152 1208.4 243.664 1203.36 239.312C1198.56 234.96 1195.2 235.728 1189.92 242.64C1176.96 258.512 1175.04 263.888 1182.96 260.816C1187.04 259.024 1190.4 255.696 1190.4 253.136C1190.4 250.576 1193.28 248.528 1196.64 248.528C1205.04 248.528 1242.72 228.56 1234.8 228.304C1227.12 228.048 1226.88 214.224 1234.56 211.408C1238.16 210.128 1237.2 208.08 1232.16 206.032C1225.92 203.472 1224 205.52 1224 214.992Z" fill="black"/>
<path d="M656.16 217.808C652.56 223.44 642.72 230.608 634.32 233.68C619.92 239.056 613.44 248.528 624.24 248.528C627.12 248.528 627.84 251.088 626.16 254.16C624.24 257.232 617.76 258.768 611.52 257.488C605.28 256.208 601.44 256.976 602.88 259.536C604.32 261.84 602.16 263.888 598.56 263.888C594.72 263.888 588.72 267.728 584.88 272.336C579.12 280.016 579.36 280.272 589.2 274.64C601.92 267.472 609.6 271.056 609.6 283.344C609.6 288.72 608.16 290 606 286.416C598.56 274.64 552 286.416 552 300.24C552 313.552 569.52 313.04 573.6 299.728C576.96 288.464 585.6 285.648 585.6 295.888C585.84 300.752 586.8 300.496 589.68 295.376C592.08 291.792 596.88 289.232 600.48 290C612.48 292.56 637.44 283.856 640.32 276.432C641.76 272.336 640.8 269.008 638.16 269.008C635.76 269.008 633.6 270.8 633.6 273.104C633.6 280.272 615.36 278.736 612.72 271.568C611.04 267.216 612.48 265.424 616.08 266.96C619.2 268.24 634.56 258.768 649.92 246.224C665.28 233.424 679.44 224.208 681.6 225.488C683.76 226.768 686.64 224.208 688.32 219.856C690.72 213.2 689.04 212.176 678.96 214.992C670.8 217.04 667.44 216.272 669.6 212.944C675.12 202.96 662.88 207.568 656.16 217.808Z" fill="black"/>
<path d="M1358.88 211.408C1358.64 214.992 1354.08 217.808 1348.8 217.808C1343.52 217.808 1339.2 220.368 1339.2 223.44C1339.2 227.28 1337.04 227.536 1333.2 224.464C1325.52 218.32 1305.6 217.04 1305.6 222.672C1305.6 224.976 1301.28 228.048 1296 229.584C1284.72 232.656 1283.04 243.408 1293.84 243.408C1297.92 243.408 1306.56 239.568 1313.52 234.704C1323.36 227.792 1327.44 227.28 1334.88 232.4C1340.4 235.984 1344 236.24 1344 233.168C1344 226.768 1356.96 226.256 1359.12 232.912C1360.08 235.472 1367.04 239.312 1374.72 241.104C1384.8 243.92 1387.68 243.152 1385.28 239.056C1383.36 235.728 1379.76 234.192 1377.6 235.728C1375.44 237.264 1372.08 236.24 1370.4 233.168C1368.72 230.352 1371.84 227.792 1377.36 227.28C1391.04 226.512 1393.68 225.744 1400.16 221.392C1403.28 219.344 1407.12 220.112 1408.8 222.928C1410.48 225.744 1413.84 226.768 1416.24 225.232C1433.04 214.224 1399.92 206.032 1378.08 215.76C1365.6 221.392 1363.44 221.136 1361.76 213.712C1360.56 208.848 1359.36 207.824 1358.88 211.408Z" fill="black"/>
<path d="M721.92 222.16C724.32 226.256 720 228.048 708.72 228.048C680.88 228.048 682.8 241.616 711.36 244.688C724.56 245.968 737.28 250.32 739.68 254.16C742.32 259.024 743.28 255.696 742.56 244.688C741.84 230.096 734.4 219.856 734.4 233.168C734.4 235.984 732.24 238.288 729.84 238.288C727.2 238.288 726.24 234.96 727.68 231.12C729.12 227.28 727.68 222.16 724.32 220.112C720.72 217.552 719.76 218.32 721.92 222.16Z" fill="black"/>
<path d="M1393.92 233.936C1391.52 238.032 1392.72 238.544 1397.28 235.728C1401.12 233.168 1400.64 235.728 1395.6 241.616C1391.04 247.248 1387.2 255.952 1387.2 261.072C1387.2 267.216 1384.8 269.008 1379.76 266.96C1375.68 265.424 1373.52 266.192 1375.2 268.752C1378.56 274.64 1362.96 283.856 1354.8 280.784C1351.44 279.504 1348.8 280.272 1348.8 282.832C1348.8 285.136 1354.32 287.696 1360.8 288.208C1367.52 288.976 1372.8 287.184 1372.8 284.368C1372.8 281.552 1376.16 279.248 1380 279.248C1384.08 279.248 1389.36 273.616 1391.76 266.96C1398 249.808 1403.52 247.504 1410.24 259.28C1415.04 267.472 1414.8 269.776 1409.04 272.08C1399.44 276.176 1385.76 304.848 1393.68 305.104C1396.56 305.104 1395.12 307.664 1390.32 310.736C1383.36 314.832 1380.24 314.576 1377.12 309.2C1374.72 305.36 1372.8 304.336 1372.8 306.64C1372.8 309.2 1370.16 308.944 1366.8 306.384C1356.48 298.192 1322.16 318.928 1330.56 328.144C1333.92 331.728 1316.4 352.208 1303.2 360.144C1293.84 365.776 1293.84 366.032 1304.4 366.032C1310.4 366.288 1315.2 369.104 1315.2 372.688C1315.2 376.272 1320.48 379.344 1327.2 379.856C1333.68 380.112 1338 378.576 1336.56 376.016C1335.12 373.456 1337.28 371.408 1341.6 371.408C1345.92 371.408 1348.08 369.36 1346.64 366.8C1344.24 362.448 1353.84 357.584 1377.6 351.44C1384.32 349.648 1389.6 344.784 1389.6 340.688C1389.6 332.752 1386 332.24 1371.6 338.384C1365.6 340.688 1363.2 339.408 1363.2 333.264C1363.2 328.656 1361.04 326.096 1358.4 327.888C1355.76 329.68 1355.04 337.36 1356.72 344.784C1358.64 354.512 1358.16 357.072 1354.56 353.488C1346.4 345.04 1341.36 317.904 1348.8 322.768C1353.36 325.84 1354.32 324.816 1352.4 319.44C1350.72 314.576 1352.4 311.76 1357.2 311.76C1361.28 311.76 1365.6 315.856 1366.8 320.976C1369.44 331.984 1390.56 329.168 1399.92 316.88C1404.24 310.992 1405.92 310.736 1407.6 316.112C1409.28 321.488 1411.2 321.488 1417.68 315.6C1422.24 311.76 1424.64 307.408 1423.44 305.872C1422 304.592 1424.64 299.728 1429.2 295.12C1440.96 283.6 1441.44 275.408 1430.4 271.568C1417.92 267.216 1417.92 256.72 1430.4 260.304C1441.92 263.376 1443.84 251.088 1432.32 246.48C1421.52 242.128 1419.84 242.64 1423.44 249.04C1425.84 253.136 1423.92 253.136 1416.72 249.04C1410.72 245.456 1407.84 240.08 1409.52 235.728C1412.64 226.512 1399.2 224.976 1393.92 233.936ZM1429.44 283.856C1430.88 288.72 1428.48 289.488 1420.8 286.928C1412.88 284.112 1410.96 284.88 1413.6 289.488C1416 293.584 1415.04 295.12 1410.96 293.584C1400.88 290 1400.16 280.272 1409.76 277.712C1421.76 274.384 1427.04 276.176 1429.44 283.856Z" fill="black"/>
<path d="M1254 241.872C1238.4 245.2 1240.56 256.976 1256.4 255.952C1283.76 254.16 1283.28 254.16 1276.8 245.968C1273.44 241.616 1269.36 238.544 1267.92 239.056C1266.24 239.312 1260 240.592 1254 241.872Z" fill="black"/>
<path d="M1215.12 254.416C1206.24 257.232 1200.24 260.56 1201.68 262.352C1205.76 266.704 1238.4 259.024 1238.4 253.392C1238.4 247.76 1236.72 247.76 1215.12 254.416Z" fill="black"/>
<path d="M736.8 267.472C724.08 270.8 715.92 279.248 725.52 279.248C744.24 279.248 779.28 305.872 775.92 317.648C774.24 323.792 785.04 336.08 793.2 337.36C796.56 337.872 801.36 339.664 804 341.456C818.16 350.16 837.84 351.696 828 343.248C818.64 335.056 818.64 335.056 831.6 337.104C838.8 338.384 844.8 337.36 844.8 334.8C844.8 330.96 834 328.144 824.4 329.936C822.48 330.192 820.8 327.888 820.8 324.816C820.8 321.488 816.48 320.208 810.72 321.744C803.28 323.792 799.92 322 798 314.832C796.8 309.2 791.76 304.848 786.96 304.848C782.16 304.848 776.64 302.032 774.72 298.96C772.32 294.864 773.76 293.84 779.04 296.144C783.36 297.936 788.16 297.168 789.84 294.352C791.28 291.792 788.4 289.488 783.36 289.488C778.08 289.488 771.36 285.904 768 281.808C764.64 277.456 757.92 274.128 752.64 274.128C747.6 274.128 744.72 271.824 746.4 269.008C748.08 266.192 748.8 264.144 747.84 264.4C747.12 264.912 742.08 266.192 736.8 267.472Z" fill="black"/>
<path d="M1230.96 283.088C1228.08 285.136 1224 291.536 1221.84 297.168C1219.2 304.08 1217.28 305.36 1215.84 300.752C1213.92 295.888 1211.76 296.4 1207.2 303.312C1203.6 308.176 1201.92 314.32 1203.36 316.88C1204.8 319.184 1207.92 318.16 1210.08 314.32C1213.44 308.944 1214.16 309.456 1214.4 316.368C1214.4 321.488 1218 325.072 1222.8 324.816C1227.36 324.816 1228.8 323.536 1225.68 322C1217.04 318.416 1228.8 290.512 1240.56 287.44C1249.92 284.88 1249.92 285.136 1241.52 291.792C1233.36 298.448 1233.6 298.96 1246.32 300.752C1257.12 302.032 1259.76 304.848 1259.52 313.808C1259.04 320.464 1261.68 325.328 1265.52 325.328C1274.16 325.328 1273.68 320.464 1262.64 302.544C1257.6 294.352 1254.48 285.648 1255.68 283.344C1258.8 278.224 1237.92 277.968 1230.96 283.088Z" fill="black"/>
<path d="M1128 298.96C1128 306.384 1124.64 308.176 1112.4 307.152C1103.76 306.64 1094.64 307.92 1092 310.224C1089.36 312.272 1085.04 314.576 1082.4 314.832C1066.08 317.136 1027.2 331.984 1027.2 335.824C1027.2 338.64 1021.2 340.944 1014 341.2C1006.8 341.456 995.52 343.76 988.8 346.064L976.8 350.416L988.8 350.16C1028.88 349.136 1038.24 352.976 1007.76 358.352C970.32 365.008 964.8 367.312 964.8 375.76C965.04 382.928 965.52 383.184 969.6 376.528C973.44 370.128 974.4 370.64 974.64 379.088C975.12 389.328 975.12 389.328 979.2 379.088C981.36 373.456 983.52 370.896 983.76 373.2C983.76 375.76 987.36 374.992 991.2 371.408C995.28 367.824 1000.08 366.288 1001.76 368.08C1003.44 369.872 1002.24 371.408 999.12 371.408C996.24 371.408 993.6 373.456 993.6 375.76C993.6 380.112 1019.04 379.088 1040.88 373.712C1049.28 371.664 1050.72 369.36 1046.88 364.24C1044 360.656 1043.28 355.536 1045.2 352.976C1047.12 350.672 1043.52 352.976 1037.28 358.608L1025.52 368.848L1034.64 352.208C1040.64 341.2 1045.2 337.36 1048.32 340.688C1055.04 347.856 1060.8 347.088 1060.8 338.64C1060.8 334.8 1064.16 328.912 1068 325.328C1073.76 320.208 1075.2 320.208 1075.2 326.096C1075.44 331.472 1076.16 331.472 1079.76 325.584C1082.16 321.232 1085.76 319.44 1087.68 321.488C1089.36 323.28 1095.12 322.512 1100.16 319.696C1107.6 315.344 1109.04 316.112 1107.84 323.28C1107.12 327.888 1109.28 333.008 1112.64 334.288C1116.72 335.824 1118.4 333.264 1117.44 327.376C1116.72 321.744 1119.36 317.392 1124.4 316.112C1130.16 314.832 1132.8 317.648 1132.8 325.072C1132.8 330.704 1134.96 335.568 1137.6 335.568C1140.24 335.568 1142.4 339.152 1142.4 343.504C1142.4 347.856 1140.48 350.16 1137.84 348.624C1135.44 347.088 1132.08 347.856 1130.4 350.928C1128.72 353.744 1124.16 356.048 1120.32 356.048C1116.24 356.048 1114.08 354.256 1115.28 351.952C1116.72 349.904 1112.16 347.6 1105.68 346.832C1098.96 346.32 1091.04 344.272 1088.16 342.224C1075.44 334.032 1064.88 336.848 1067.52 347.856C1068.96 353.744 1070.4 360.4 1070.4 362.448C1070.4 369.36 1080 366.544 1080 359.632C1080 356.048 1084.32 352.72 1089.6 352.208C1094.88 351.952 1099.2 353.744 1099.2 356.56C1099.2 359.376 1097.04 360.4 1094.4 358.608C1091.76 356.816 1089.6 359.376 1089.6 363.984C1089.6 371.408 1090.8 371.664 1097.28 365.776C1105.68 358.352 1146.96 355.792 1145.52 362.96C1145.04 365.264 1149.6 369.36 1155.6 371.664C1163.76 374.992 1166.4 374.48 1166.4 369.104C1166.4 365.008 1169.28 358.864 1172.64 355.024C1182.72 344.528 1182.72 344.016 1176.48 331.472C1170.48 319.44 1158.96 320.976 1163.52 333.52C1164.96 337.616 1163.04 340.688 1158.96 340.688C1150.32 340.688 1146 330.448 1145.28 307.152C1144.8 287.952 1128 280.272 1128 298.96Z" fill="black"/>
<path d="M481.2 304.848C475.44 310.48 467.52 315.088 463.44 315.088C458.64 315.088 457.2 318.16 459.12 324.048C462 332.24 461.52 332.24 454.08 325.072C449.04 319.952 440.64 317.648 431.52 319.184L416.88 321.488L429.36 330.192C449.52 344.272 480 336.848 503.04 311.76L518.88 294.608H505.2C497.52 294.608 486.72 299.216 481.2 304.848Z" fill="black"/>
<path d="M410.64 308.176C409.44 312.016 402.72 315.088 395.76 315.088C389.04 315.088 384.72 317.136 386.16 319.696C387.6 322.256 380.4 322.256 369.12 319.44C356.16 316.368 347.28 316.624 343.44 319.952C340.08 322.768 336 324.048 334.32 322.768C332.64 321.232 332.4 321.744 333.6 323.792C337.2 328.656 412.8 328.912 412.8 324.048C412.8 321.744 417.6 317.904 423.6 315.344C429.6 312.784 431.52 310.48 428.16 310.224C424.56 310.224 422.88 307.92 424.32 305.616C425.76 303.312 423.84 301.52 420 301.52C416.16 301.52 412.08 304.592 410.64 308.176Z" fill="black"/>
<path d="M639.6 307.92C636.24 311.504 633.6 317.136 633.6 320.208C633.6 323.28 631.44 324.56 628.8 322.768C626.16 320.976 624 323.28 624 327.888C624 333.008 621.84 334.8 618 332.496C613.68 329.936 613.68 330.96 618.24 336.08C623.76 342.224 625.2 341.968 629.28 334.288C631.92 329.168 636.24 326.352 638.64 328.144C641.04 329.68 641.76 327.12 639.84 322.256C638.16 317.392 638.64 314.576 641.28 316.368C643.68 317.904 648.24 316.112 651.36 312.528C655.92 307.152 655.92 305.36 651.36 303.312C648.24 302.032 642.96 304.08 639.6 307.92Z" fill="black"/>
<path d="M1292.88 310.992C1294.8 324.048 1305.6 330.192 1305.6 318.16C1305.6 308.944 1313.04 307.152 1317.6 315.088C1320.96 320.976 1329.6 317.136 1329.6 309.712C1329.6 307.152 1326.48 306.384 1322.4 308.176C1318.32 309.712 1315.2 308.176 1315.2 304.336C1315.2 299.216 1314 298.96 1309.44 303.824C1302.48 311.248 1294.32 312.016 1298.4 304.848C1300.08 302.032 1299.12 299.728 1296.24 299.728C1293.6 299.728 1291.92 304.848 1292.88 310.992Z" fill="black"/>
<path d="M517.92 310.48C512.4 314.32 512.4 314.832 518.4 315.088C524.64 315.344 524.64 315.856 518.64 319.952C507.84 327.376 514.56 330.448 526.32 323.536C534.48 318.928 535.44 316.368 530.64 311.76C526.8 308.176 522 307.664 517.92 310.48Z" fill="black"/>
<path d="M1233.6 312.528C1236.96 316.624 1242.48 320.208 1246.08 320.208C1249.92 320.208 1252.8 316.624 1252.8 312.528C1252.8 307.664 1248.24 304.848 1240.32 304.848C1229.52 304.848 1228.56 306.128 1233.6 312.528Z" fill="black"/>
<path d="M1428 338.384C1422.72 342.736 1418.4 347.856 1418.4 349.904C1418.4 351.952 1415.76 353.232 1412.4 352.72C1409.28 352.464 1407.6 353.744 1408.8 356.048C1412.64 362.96 1398.48 371.664 1389.6 368.08C1382.16 365.008 1381.44 366.544 1384.08 378.32C1386.48 388.56 1385.52 391.888 1380 391.888C1376.16 391.888 1372.8 395.216 1372.8 399.568C1372.8 409.04 1367.28 409.552 1358.88 400.848C1353.6 395.728 1351.92 395.728 1350.24 400.848C1349.04 404.432 1344.72 407.248 1340.64 407.248C1334.16 407.248 1334.16 405.968 1339.92 398.288C1345.68 390.096 1345.68 390.096 1338.24 396.24C1333.44 400.08 1325.76 401.616 1319.52 399.568C1313.28 397.264 1310.4 397.776 1312.08 400.848C1313.76 403.664 1309.44 405.2 1302.48 404.432C1287.12 402.64 1281.84 394.704 1284.48 377.04L1286.4 363.728L1274.64 378.832C1261.68 395.472 1253.52 394.192 1262.4 376.784C1267.44 366.544 1267.2 366.288 1257.84 372.432C1251.6 376.528 1248.96 382.16 1250.64 388.048C1252.32 392.912 1251.12 397.008 1248.24 397.008C1245.6 397.008 1243.2 390.608 1243.2 382.928C1242.96 372.944 1241.76 370.896 1238.88 375.76C1235.52 381.648 1232.88 380.88 1225.2 372.688C1215.84 362.704 1215.84 362.704 1215.6 378.576C1215.6 387.28 1216.56 391.632 1217.76 388.048C1220.88 379.088 1233.6 380.112 1233.6 389.328C1233.6 393.424 1235.76 397.008 1238.4 397.008C1241.04 397.008 1243.2 400.336 1243.2 404.688C1243.2 415.184 1251.12 414.416 1257.12 403.408C1260 398.544 1262.16 396.24 1262.16 398.544C1262.4 400.592 1266.48 400.336 1271.28 397.52C1278.72 393.168 1279.92 394.448 1279.92 407.504C1279.92 415.696 1278 422.608 1275.6 422.608C1273.44 422.608 1272.72 424.656 1274.16 427.472C1275.6 430.032 1274.64 433.616 1272 435.408C1269.36 437.2 1267.92 440.272 1269.12 442.32C1270.32 444.368 1269.6 449.232 1267.44 452.816C1263.12 460.496 1214.4 465.616 1214.4 458.448C1214.4 455.888 1208.16 456.144 1200 459.216C1183.44 465.36 1182.96 466.64 1192.8 477.136C1199.28 484.048 1200 483.792 1200.48 475.344C1200.72 468.176 1201.44 467.92 1203.6 473.808C1207.44 484.304 1220.4 494.032 1225.92 490.448C1228.32 488.912 1228.56 490.448 1226.64 493.776C1222.56 500.944 1236.72 519.888 1246.08 519.888C1249.44 519.888 1253.76 525.008 1255.44 531.408C1261.68 552.144 1276.8 554.704 1276.8 535.248C1276.8 522.96 1291.68 513.744 1301.04 520.144C1306.8 524.24 1306.8 524.752 1300.08 525.008C1296 525.008 1289.76 528.336 1286.4 532.432C1281.36 539.088 1283.76 538.832 1302.72 532.176C1314.96 527.568 1324.8 522.192 1324.8 519.632C1324.8 512.208 1347.12 489.168 1354.32 489.168C1357.92 489.168 1368.96 484.56 1378.8 478.928C1388.64 473.296 1401.12 468.688 1406.4 468.688C1411.68 468.688 1416 465.36 1416 461.008C1416 456.656 1413.84 453.328 1411.2 453.328C1408.56 453.328 1406.4 455.376 1406.4 457.936C1406.4 463.056 1384.08 468.432 1356 470.224C1342.8 470.992 1335.6 474.064 1333.44 480.208C1331.52 485.328 1323.84 491.984 1316.64 495.568C1309.2 498.896 1301.52 504.016 1299.6 507.088C1297.44 510.416 1296.24 509.904 1296 505.808C1296 502.224 1292.64 499.408 1288.32 499.408C1283.52 499.408 1281.6 502.224 1283.28 506.832C1287.84 519.888 1278.96 519.888 1266 506.832C1258.8 499.92 1248.24 494.288 1242.24 494.032C1231.68 494.032 1231.44 493.776 1240.32 486.608C1245.36 482.512 1251.84 480.72 1254.72 482.768C1264.8 489.68 1272 488.144 1272 479.44C1272 474.576 1274.64 467.664 1278 463.824C1282.8 458.448 1282.8 457.68 1278 460.496C1274.64 462.544 1272 461.776 1272 458.704C1272 455.888 1274.16 453.328 1277.04 453.328C1279.68 453.328 1281.6 450.512 1281.36 446.928C1279.44 432.848 1281.84 422.608 1286.64 422.608C1289.52 422.608 1290.24 425.168 1288.56 428.24C1282.56 438.48 1307.52 427.472 1316.64 415.696L1325.52 404.688L1320.24 416.208C1316.64 423.888 1316.4 427.728 1319.76 427.728C1322.64 427.728 1324.8 425.424 1324.8 422.608C1324.8 419.792 1328.16 417.488 1332 417.488C1336.32 417.488 1339.2 422.096 1339.2 429.264C1339.2 437.2 1342.32 441.04 1348.8 441.808C1354.08 442.064 1358.4 440.272 1358.4 437.712C1358.4 434.896 1362.72 432.848 1368 432.848C1381.2 432.848 1380 439.248 1364.88 448.976C1356.96 454.096 1354.32 458.448 1357.68 460.496C1360.8 462.544 1363.2 461.264 1363.2 457.424C1363.44 452.048 1364.16 452.048 1367.28 457.424C1370.64 463.056 1372.8 462.8 1379.04 456.144C1383.12 451.792 1389.36 448.208 1392.96 447.952C1397.04 447.952 1396.32 445.392 1390.56 440.784C1384.8 436.176 1383.6 432.592 1387.2 430.288C1391.04 427.728 1391.04 424.912 1386.96 419.792C1379.76 410.576 1381.68 408.272 1413.12 384.208C1435.92 366.544 1439.76 361.424 1440 347.088C1440 327.888 1440.48 328.4 1428 338.384Z" fill="black"/>
<path d="M1278 346.576C1274.64 350.16 1272 356.56 1272.24 360.912C1272.24 367.056 1273.44 366.8 1277.52 359.376C1280.4 353.744 1284 351.952 1285.68 354.768C1289.52 360.912 1310.4 353.488 1310.4 346.064C1310.4 342.736 1306.32 342.48 1298.64 345.552C1291.2 348.624 1286.4 348.624 1285.44 345.296C1284.48 342.48 1281.36 342.992 1278 346.576Z" fill="black"/>
<path d="M924 375.248C924.96 380.112 925.92 384.72 925.92 385.232C926.16 385.744 932.88 383.952 940.8 381.648C955.2 377.296 959.28 380.368 950.4 389.84C947.28 393.168 948.72 394.704 954.72 394.704C961.92 394.704 962.88 392.656 960 384.464C957.84 378.576 953.76 374.48 950.88 375.248C948 376.016 945.6 374.224 945.6 371.408C945.6 368.592 940.32 366.288 934.08 366.288C925.68 366.288 922.8 368.592 924 375.248Z" fill="black"/>
<path d="M10.8 380.368C-0.96 382.416 -3.6 389.584 6 393.68C10.8 395.728 10.8 396.24 6 396.496C2.64 396.752 0 399.824 0 402.896C0 406.224 5.76 403.408 12.72 396.496C19.68 389.84 23.76 387.536 21.36 391.888C18 398.544 18.48 398.544 25.44 392.656C37.68 382.16 31.44 377.04 10.8 380.368Z" fill="black"/>
<path d="M353.52 380.624C348.72 388.816 377.52 398.544 396 394.704C417.12 390.608 417.84 384.464 397.2 383.44C388.56 383.184 375.84 381.136 368.88 379.088C361.92 377.296 354.96 377.808 353.52 380.624Z" fill="black"/>
<path d="M1432.56 390.608C1432.8 398.544 1429.68 406.224 1425.6 408.272C1420.32 410.576 1421.28 411.856 1429.2 412.112C1438.32 412.368 1440 409.808 1440 394.448C1440 384.464 1438.32 376.528 1436.16 376.528C1434 376.528 1432.56 382.928 1432.56 390.608Z" fill="black"/>
<path d="M52.8 387.024C52.8 390.096 50.64 391.12 48 389.328C45.36 387.536 43.2 388.816 43.2 391.888C43.2 394.96 41.28 396.24 38.64 394.704C36.24 393.168 32.64 394.448 30.72 397.776C28.56 401.36 29.28 402.384 32.88 400.08C36 398.032 38.4 398.8 38.4 401.872C38.4 405.2 42.72 404.432 49.2 399.824C55.2 395.728 61.68 392.4 63.6 392.144C65.52 391.888 68.88 391.632 70.8 391.376C72.72 390.864 78.72 391.12 84 391.888C101.04 393.68 88.32 386.512 70.32 384.208C59.76 382.672 52.8 383.952 52.8 387.024Z" fill="black"/>
<path d="M1191.84 392.912C1192.08 398.032 1195.44 402.128 1199.04 402.128C1203.12 402.128 1204.8 405.2 1203.12 409.552C1201.44 414.416 1202.88 415.952 1207.44 414.16C1215.6 410.832 1216.8 402.128 1209.12 402.128C1206 402.128 1204.8 397.776 1206 392.144C1207.92 384.976 1206.24 382.672 1199.76 383.184C1194.72 383.44 1191.36 387.536 1191.84 392.912Z" fill="black"/>
<path d="M494.4 396.496C477.36 401.36 452.88 412.368 440.16 421.072C426 430.8 407.28 438.48 392.16 440.784C332.88 449.232 291.36 473.808 232.32 535.248C190.08 579.024 191.28 578.512 144 565.968C92.64 552.144 0 564.432 0 585.168C0 596.176 1.68 597.456 12.48 594.384C19.44 592.592 27.84 593.616 31.44 596.944C39.12 603.6 49.68 598.48 44.88 590.544C43.2 587.216 43.92 586.448 47.04 588.24C49.92 590.288 60.72 589.776 71.28 587.216C92.64 582.096 98.64 584.4 102 599.248C104.16 607.952 104.64 607.44 105.12 596.944L105.6 584.144L113.04 595.664C119.28 605.136 122.16 605.904 130.56 601.296C138 596.944 141.36 597.2 144 602.064C146.88 606.928 150.24 606.416 158.88 600.016C173.04 589.52 180.48 589.264 184.32 599.504C185.76 603.856 185.04 606.16 182.64 604.624C180.24 602.832 176.88 603.856 175.2 606.928C173.52 609.744 175.44 612.048 179.52 612.048C183.36 612.048 188.88 608.208 191.28 603.344C194.88 596.432 197.28 595.92 202.8 600.528C207.84 605.392 210.72 605.392 215.04 600.784C219.6 595.92 220.8 596.688 220.8 603.344C220.8 615.376 233.76 614.352 240 601.808C242.88 596.176 247.68 592.336 250.8 592.848C253.92 593.616 256.56 589.52 256.56 583.888C256.8 578.256 260.16 573.392 264 572.88C268.08 572.624 275.52 571.856 280.8 571.6C288.72 571.088 289.2 570.064 283.2 566.224C277.2 561.872 276.96 560.336 282.72 554.704C287.76 549.84 288.48 549.584 286.08 554.448C284.16 558.032 284.88 560.848 287.28 560.848C289.92 560.848 293.52 556.496 294.96 551.12C301.44 529.616 332.88 533.2 328.08 554.96C323.28 576.72 310.8 589.776 306.48 577.744C303.6 569.808 303.12 570.32 302.64 580.304C302.64 586.96 300.24 590.8 297.6 589.008C294.96 587.216 294.24 589.264 295.68 593.872C297.84 599.76 296.64 601.04 291.12 598.736C285.36 596.432 284.16 598.48 285.6 606.672C288.96 626.128 283.92 632.016 268.56 627.408C255.36 623.312 254.88 623.824 259.68 633.296C263.76 641.488 263.04 645.072 256.08 651.216C247.92 658.128 248.16 658.128 258.48 653.008C265.68 649.168 268.56 644.304 266.64 639.184C264.24 632.016 264.96 632.016 271.92 638.16C278.88 644.304 280.32 644.304 282.48 637.648C283.68 633.296 291.36 623.312 299.52 614.864C307.68 606.672 311.28 602.064 307.2 604.368C303.36 606.928 305.28 602.832 312 595.408C320.4 585.936 324.96 583.632 328.08 587.984C330.72 592.08 331.2 590.8 329.28 584.912C326.16 574.16 340.08 534.224 345.84 537.808C348 539.344 351.36 537.808 353.28 534.48C355.44 530.896 354.72 529.872 351.12 532.176C347.52 534.48 345.6 531.408 345.6 522.704C345.6 515.536 347.76 509.648 350.16 509.648C352.8 509.648 358.32 501.456 362.88 491.472C367.92 480.208 373.44 474.32 377.52 475.856C381.12 477.392 384 475.856 384 472.272C384 468.432 385.44 468.176 387.6 471.248C394.32 480.976 411.84 479.952 414.96 469.456C418.56 457.68 441.6 451.024 441.6 461.776C441.6 465.616 446.16 468.688 451.44 468.688C456.96 468.688 460.32 470.48 458.88 473.04C457.44 475.344 459.6 477.136 463.44 477.136C467.52 477.136 468.72 475.088 466.08 471.76C454.32 455.888 474.24 431.056 495.36 435.152C505.44 436.944 509.04 435.152 511.44 426.96C513.6 419.792 515.76 418.256 518.16 422.096C520.56 426.448 525.12 426.704 534.48 422.864C541.44 420.048 547.2 419.792 547.2 422.096C547.2 424.656 550.56 427.984 554.64 429.776C558.96 431.312 560.88 430.544 559.2 427.728C557.52 424.912 561.12 422.608 567.36 422.608C576.24 422.864 576.96 423.632 571.2 427.728C564.96 432.08 565.2 432.592 572.4 432.848C576.96 432.848 580.8 430.288 580.8 427.216C580.8 423.888 584.4 422.864 589.2 424.912C593.76 426.96 599.76 429.008 602.4 429.264C605.04 429.776 608.88 432.592 610.8 435.408C612.96 438.48 614.4 438.224 614.4 434.384C614.4 427.216 629.28 431.312 634.56 440.016C636.72 443.6 643.44 442.32 654.24 436.944C669.12 429.264 670.8 429.264 670.32 436.432C669.84 441.04 672.96 445.648 676.8 446.672C682.08 448.464 682.32 447.696 678 444.368C670.56 438.736 705.36 439.248 714 444.88C717.36 447.184 720 446.416 720 443.344C720 440.528 723.36 437.968 727.44 437.968C731.52 437.968 733.68 440.016 732.24 442.576C730.8 444.88 732.96 450 736.8 453.328C742.8 458.704 744 457.936 744.48 450C744.48 444.624 745.92 443.344 747.12 446.928C751.2 457.424 759.6 454.096 756.96 443.088C755.52 437.456 756.48 432.848 758.88 432.848C761.28 432.848 763.44 436.944 763.68 441.808C763.68 446.672 764.88 448.208 766.08 445.136C767.28 442.064 773.28 440.528 779.28 441.808C787.2 443.344 791.76 440.528 796.08 432.08L801.84 420.048L799.68 431.824C797.52 443.344 798 443.344 809.28 435.664C815.52 431.056 820.8 429.776 820.8 432.848C820.8 435.664 818.64 437.968 816 437.968C813.36 437.968 811.2 440.272 811.2 443.088C811.2 445.904 815.76 448.208 821.04 448.208C826.56 448.208 829.68 446.16 828.24 443.6C821.28 431.312 869.28 434.896 885.6 447.952C891.84 452.816 912.72 447.184 912.24 440.528C912.24 437.712 914.64 435.408 918 435.408C921.36 435.408 923.28 440.016 922.32 445.392C920.88 453.84 921.84 454.352 928.32 448.72C932.64 444.88 940.8 443.344 947.52 445.136C961.2 448.72 975.6 444.112 971.52 437.2C968.16 431.568 980.4 433.616 984.48 439.504C986.16 442.064 990.72 440.272 995.04 435.664C999.84 430.544 1003.68 429.52 1005.84 433.104C1007.76 436.432 1010.88 436.688 1014.48 433.872C1020.72 428.496 1037.52 427.728 1034.4 432.848C1030.8 438.992 1074.96 434.384 1082.4 427.728C1088.4 422.608 1089.6 422.864 1089.6 429.776C1089.6 434.64 1085.76 437.968 1080 437.968C1068.48 437.968 1067.28 445.904 1077.84 450.256C1082.16 451.792 1083.84 455.888 1081.92 459.216C1079.76 462.8 1080.72 463.824 1083.84 461.52C1086.72 459.728 1087.92 454.864 1086.48 450.768C1084.56 445.136 1088.64 444.112 1107.6 445.648C1129.68 447.44 1132.08 446.672 1138.08 433.872C1148.88 410.576 1148.88 409.296 1137.84 423.888C1127.76 437.456 1114.32 444.112 1121.28 432.08C1123.2 428.752 1120.56 422.864 1115.52 418.512C1107.6 412.112 1107.6 411.344 1114.8 414.16C1123.2 417.232 1126.08 412.112 1120.08 405.712C1114.56 399.824 1104 413.136 1104 425.424C1104 432.08 1102.08 438.48 1099.92 440.016C1097.52 441.552 1096.56 437.712 1097.52 431.312C1100.88 411.6 1092.96 406.224 1061.52 405.968C1045.44 405.712 1033.44 403.664 1034.88 401.36C1036.32 399.056 1036.08 397.008 1034.64 397.008C1032.96 397.008 1029.84 402.128 1027.44 408.528C1024.08 417.232 1022.88 418 1022.64 411.088C1022.4 404.688 1018.56 402.384 1009.2 402.64L996 403.152L1008 407.248C1014.72 409.552 1017.12 411.6 1013.76 411.856C1010.16 412.112 1008.48 414.16 1009.92 416.72C1011.36 419.024 1009.2 420.816 1005.36 420.816C1001.52 420.816 998.4 419.28 998.4 417.488C998.4 413.392 949.2 410.832 872.4 410.576C819.12 410.32 814.56 407.248 847.68 393.936L866.4 386.256L840 388.56C825.6 389.84 803.04 394.96 790.08 399.568C765.12 408.784 706.56 407.76 621.6 397.264C544.32 387.536 526.32 387.536 494.4 396.496ZM353.28 491.472C353.28 498.128 352.08 503.504 350.64 502.992C341.04 500.176 316.08 515.536 318.72 522.704C320.16 527.056 319.44 529.36 317.04 527.824C310.56 523.472 312.96 505.296 320.64 501.968C324.24 500.688 329.52 500.944 332.4 502.736C335.76 505.04 336.48 502.992 334.56 497.36C332.64 492.496 333.12 489.936 335.52 491.472C337.92 493.008 342.48 490.704 345.6 486.608C353.28 476.624 353.28 476.624 353.28 491.472ZM228.48 564.176C221.28 572.624 216 575.696 216 571.6C216 564.176 235.2 543.952 238.8 547.792C240 548.816 235.44 556.496 228.48 564.176Z" fill="black"/>
<path d="M301.68 402.128C300.72 409.04 297.36 415.184 294 415.44C274.08 417.744 271.68 418.512 277.2 420.816C280.56 422.352 283.2 425.168 283.2 427.216C283.2 431.312 242.64 430.032 232.08 425.68C228.48 424.144 225.6 424.912 225.6 427.216C225.6 439.248 285.6 446.672 289.68 435.408C291.36 430.8 294.48 428.24 296.4 429.52C298.56 431.056 305.52 427.728 312.24 422.352C318.72 416.976 321.12 412.624 317.76 412.368C314.4 412.368 309.84 407.248 307.68 400.848L303.6 389.328L301.68 402.128Z" fill="black"/>
<path d="M78 405.968C48.48 416.464 103.92 438.736 149.52 434.64C173.04 432.592 185.52 429.776 180 427.728C174.96 425.936 163.2 425.168 154.08 426.192C138 427.984 137.76 427.984 146.88 419.024C151.92 413.904 154.08 411.6 151.44 413.648C144.48 419.28 117.84 418.256 112.08 412.112C106.32 405.968 87.36 402.64 78 405.968Z" fill="black"/>
<path d="M1413.6 427.728C1411.92 430.8 1409.04 432.08 1407.12 430.8C1405.2 429.52 1403.28 432.848 1402.8 437.968C1402.56 444.112 1404.72 446.672 1408.56 445.136C1411.92 443.6 1416 446.16 1417.68 450.512C1421.28 460.752 1430.4 460.752 1430.4 450.768C1430.4 446.416 1432.56 443.088 1435.2 443.088C1437.84 443.088 1440 438.48 1440 432.848C1440 421.84 1419.36 417.744 1413.6 427.728Z" fill="black"/>
<path d="M528 432.592C522.24 436.432 522 438.736 526.8 443.856C531.6 448.976 532.8 448.464 532.8 441.296C532.8 434.128 534.48 433.36 542.4 437.968C550.08 442.32 551.28 441.808 548.88 435.408C545.76 426.704 538.56 425.68 528 432.592Z" fill="black"/>
<path d="M192 442.576C192 444.88 180.24 446.672 165.6 446.16C141.84 445.392 139.92 446.16 146.64 453.072C156.72 464.08 245.28 466.128 241.44 455.376C240 451.28 235.44 447.952 231.12 447.952C224.88 447.44 225.36 446.416 232.8 443.088C240.72 439.504 240.96 438.736 234.24 438.224C229.68 438.224 223.92 442.064 221.28 446.928C216.48 455.376 216.24 455.376 216.24 446.928C216 440.784 212.16 437.968 204 437.968C197.52 437.968 192 440.016 192 442.576Z" fill="black"/>
<path d="M1289.76 444.88C1284.48 459.472 1289.52 462.8 1309.2 458.192C1320 455.632 1329.12 455.888 1331.76 458.704C1338.48 465.872 1344 464.592 1344 456.144C1344 450.256 1339.2 449.232 1320.48 451.28C1300.32 453.584 1296.48 452.56 1295.04 444.624C1293.36 435.664 1293.12 435.664 1289.76 444.88Z" fill="black"/>
<path d="M22.08 457.168C20.16 459.216 14.88 461.008 10.56 461.008C6.24 461.008 2.16 465.104 1.68 469.968C1.2 476.368 1.68 476.88 3.36 471.248C4.56 467.152 7.68 463.568 10.32 463.568C12.72 463.568 13.68 465.872 12 468.688C10.32 471.504 12.48 473.808 16.8 473.808C21.12 473.808 23.28 471.76 21.84 469.2C20.4 466.64 21.84 463.312 25.2 462.032C28.56 461.008 30 458.448 28.32 456.656C26.88 454.864 24 455.12 22.08 457.168Z" fill="black"/>
<path d="M1131.36 457.936C1121.52 459.728 1113.36 462.8 1113.36 464.848C1113.84 475.344 1112.64 475.6 1106.16 466.384C1099.2 456.656 1099.2 456.656 1099.2 466.384C1099.44 484.304 1105.44 489.168 1121.04 484.304C1129.68 481.488 1131.84 479.696 1126.32 479.44C1119.12 478.928 1118.4 477.392 1122.72 472.016C1125.84 467.92 1133.28 466.128 1140 467.408C1148.88 469.2 1152 467.664 1152 461.52C1152 457.168 1151.52 453.584 1150.8 454.096C1150.08 454.352 1141.44 456.144 1131.36 457.936Z" fill="black"/>
<path d="M33.6 461.264C33.6 468.176 52.08 484.304 54.72 479.696C56.4 476.88 65.04 475.344 73.92 476.112C86.16 477.136 89.76 475.6 87.84 470.48C85.92 464.848 83.76 464.592 78.48 469.2C73.44 473.808 69.84 473.296 63.12 466.896C58.32 462.288 52.56 458.448 49.92 458.448C47.52 458.448 48.96 460.752 52.8 463.568C59.04 467.92 58.8 468.432 51.6 468.688C47.04 468.688 43.2 466.384 43.2 463.568C43.2 460.752 41.04 458.448 38.4 458.448C35.76 458.448 33.6 459.728 33.6 461.264Z" fill="black"/>
<path d="M1172.88 471.248C1171.44 475.344 1171.2 482 1172.64 486.096C1174.08 489.936 1173.36 495.056 1170.96 497.616C1168.32 500.432 1170.48 502.224 1176 502.224C1182.72 502.224 1185.6 498.896 1185.6 490.704C1185.6 484.304 1183.44 478.928 1181.04 478.928C1178.4 478.928 1177.44 475.344 1179.12 471.248C1180.56 466.896 1180.56 463.568 1178.88 463.568C1176.96 463.568 1174.56 466.896 1172.88 471.248Z" fill="black"/>
<path d="M1276.8 484.816C1276.8 489.936 1287.6 493.008 1297.2 490.192C1311.12 486.352 1306.56 478.672 1291.2 479.952C1283.28 480.464 1276.8 482.768 1276.8 484.816Z" fill="black"/>
<path d="M1429.92 486.864C1425.84 490.96 1415.76 495.056 1407.36 495.824C1398.24 496.336 1392 499.664 1392 503.76C1392 508.112 1394.88 509.648 1399.92 507.6C1406.64 504.784 1406.88 505.296 1401.12 512.976C1395.12 520.656 1395.36 520.912 1404.96 515.536C1410.72 512.208 1418.4 510.16 1421.76 510.928C1425.12 511.696 1427.52 509.392 1426.8 506.064C1426.32 502.48 1428.72 500.944 1432.32 502.48C1436.64 504.272 1438.8 500.944 1438.8 491.984C1438.8 476.624 1439.28 476.88 1429.92 486.864Z" fill="black"/>
<path d="M98.4 489.168C100.08 491.984 98.64 494.288 95.04 494.544C81.36 494.8 71.28 507.6 79.2 514.768C85.44 520.144 86.16 519.888 83.76 513.232C81.6 507.344 85.2 502.992 96.72 498.128C109.68 492.24 110.88 490.448 103.92 487.632C98.88 485.584 96.72 486.096 98.4 489.168Z" fill="black"/>
<path d="M152.64 493.264C145.68 494.288 137.28 498.128 134.16 502.224C128.4 509.648 134.64 512.976 141.12 505.808C146.4 500.176 155.52 500.688 159.36 506.832C163.68 513.488 169.44 507.344 167.28 498.64C166.32 494.544 160.56 492.24 152.64 493.264Z" fill="black"/>
<path d="M1370.16 494.8C1368.48 497.872 1369.44 502.992 1372.56 506.32C1377.84 511.952 1386.96 503.76 1387.2 493.008C1387.2 487.12 1373.76 488.4 1370.16 494.8Z" fill="black"/>
<path d="M1243.2 579.024C1243.2 583.632 1245.6 585.424 1248.48 583.632C1251.36 581.584 1255.68 583.12 1258.08 586.96C1261.2 592.336 1262.16 591.056 1262.4 582.608C1262.4 574.416 1259.52 571.088 1252.8 571.088C1247.28 571.088 1243.2 574.416 1243.2 579.024Z" fill="black"/>
<path d="M376.56 607.184C374.88 610.256 375.12 614.352 377.04 616.144C378.96 618.192 381.36 617.168 382.56 613.84C383.52 610.768 388.56 609.232 393.84 610.512C398.88 612.048 403.2 610.768 403.2 607.44C403.2 600.272 380.88 600.016 376.56 607.184Z" fill="black"/>
<path d="M1073.76 621.52C1076.4 632.528 1092.72 634.576 1096.32 624.336C1097.52 620.752 1095.12 618.704 1090.56 619.472C1086 620.24 1079.76 618.96 1076.88 616.144C1072.8 612.816 1071.84 614.352 1073.76 621.52Z" fill="black"/>
<path d="M376.08 628.688C374.16 632.016 375.12 632.528 378.72 630.224C382.56 627.664 383.76 630.48 382.08 639.952C380.88 647.376 381.84 651.984 384.24 650.192C386.88 648.656 388.8 644.048 388.8 639.952C388.8 635.856 391.44 632.528 394.32 632.528C402 632.528 395.28 625.616 386.4 624.336C382.32 623.824 377.76 625.616 376.08 628.688Z" fill="black"/>
<path d="M1142.4 626.384C1142.4 629.712 1139.04 630.736 1134.72 628.944C1130.4 627.408 1125.12 629.2 1122.72 633.04C1116.96 642.768 1117.2 654.288 1123.2 650.448C1126.08 648.656 1126.8 645.072 1125.36 642.512C1123.92 639.696 1127.04 637.648 1132.32 637.648C1142.16 637.648 1150.32 628.944 1145.28 623.568C1143.6 622.032 1142.4 623.312 1142.4 626.384Z" fill="black"/>
<path d="M1394.4 643.28C1377.84 654.288 1360.32 655.824 1356.72 646.608C1355.04 642 1354.32 642 1354.08 646.352C1353.84 649.68 1355.76 653.776 1358.4 655.568C1361.04 657.36 1363.2 660.944 1363.2 663.76C1363.2 666.576 1361.04 667.6 1358.4 665.808C1355.76 664.016 1353.6 666.832 1353.6 672.208C1353.6 677.328 1350.96 684.496 1347.6 688.08C1342.8 693.2 1343.04 695.248 1348.32 698.832C1351.92 701.136 1353.36 705.488 1351.68 708.304C1350 711.376 1350.48 714.96 1352.64 716.24C1354.8 717.776 1359.12 714.192 1362.48 708.56C1365.84 702.672 1366.56 699.344 1364.16 701.136C1361.52 702.672 1358.16 700.624 1356.72 696.528C1354.8 691.664 1356.72 688.848 1362.24 688.848C1368.48 688.592 1368.96 687.824 1363.92 684.24C1358.64 680.656 1358.64 678.096 1363.92 669.136C1370.88 657.104 1377.6 654.8 1377.6 664.016C1377.6 667.344 1381.44 666.064 1386.96 660.944C1395.84 652.496 1396.08 652.496 1393.2 664.016L1390.56 676.048L1401.6 665.808C1407.84 660.176 1411.2 658.384 1409.28 661.968C1407.36 665.552 1408.08 668.368 1410.96 668.368C1413.6 668.368 1416 670.928 1416 674C1416 677.072 1412.88 678.352 1409.04 676.816C1405.2 675.28 1397.04 678.608 1391.04 684.24L1380 694.48L1392.48 686.544C1404.72 678.608 1405.44 678.864 1413.6 692.176C1419.6 701.904 1420.56 706.768 1416.72 708.304C1413.6 709.328 1411.2 713.168 1411.2 717.008C1411.2 720.848 1408.56 724.944 1405.2 726.48C1400.4 728.528 1400.4 729.04 1405.2 729.296C1417.2 730.32 1418.4 729.808 1418.4 723.408C1418.4 719.824 1422.96 717.776 1429.2 718.544C1437.6 719.824 1440 717.776 1440 708.56C1440 697.552 1439.76 697.296 1433.04 707.024C1428.96 712.656 1425.84 714.704 1425.6 711.888C1425.36 709.072 1423.44 697.296 1421.28 685.52C1417.92 666.32 1418.64 663.504 1428.72 657.616C1440 651.216 1444.32 637.648 1435.2 637.648C1432.56 637.648 1430.4 640.976 1430.4 644.816C1430.4 648.656 1427.28 653.264 1423.2 654.8C1415.04 658.128 1413.36 647.632 1420.8 639.696C1429.44 630.48 1409.52 633.296 1394.4 643.28Z" fill="black"/>
<path d="M153.6 643.024C159.6 647.12 158.88 648.4 150 650.96C141.36 653.52 140.16 655.824 144.48 661.2C150.72 669.392 160.56 670.928 156 663.248C152.16 656.592 163.92 643.792 171.12 646.352C174.24 647.632 177.84 646.352 179.28 643.792C180.72 641.232 174 638.928 164.16 638.672C151.2 638.16 148.32 639.184 153.6 643.024Z" fill="black"/>
<path d="M190.56 647.888C192 653.52 194.88 659.408 197.04 660.688C198.96 662.224 199.68 658.64 198.24 653.008C195.36 641.488 208.56 638.16 212.88 649.168C214.32 653.008 215.28 651.984 215.52 646.608C216 639.952 212.4 637.648 202.08 637.648C190.32 637.648 188.64 639.44 190.56 647.888Z" fill="black"/>
<path d="M304.8 647.888C302.88 654.032 304.56 661.2 308.64 665.552C314.88 672.208 316.08 671.696 317.76 661.456C320.64 645.84 309.12 633.808 304.8 647.888Z" fill="black"/>
<path d="M1241.52 665.808C1239.84 669.904 1240.8 673.488 1243.44 673.488C1245.84 673.488 1248 676.048 1248 679.12C1248 682.192 1244.88 683.472 1240.8 681.936C1236.96 680.144 1233.6 680.912 1233.6 683.472C1233.6 686.032 1229.76 689.104 1225.2 690.384C1217.52 692.688 1217.52 692.944 1225.44 693.456C1230.24 693.712 1232.88 696.272 1231.2 699.088C1229.52 701.904 1230.48 704.208 1233.36 704.208C1236 704.208 1238.4 700.368 1238.4 696.016C1238.4 689.872 1240.08 689.104 1244.4 692.944C1248.96 697.04 1250.64 693.456 1251.6 678.096C1253.04 658.384 1246.8 650.96 1241.52 665.808Z" fill="black"/>
<path d="M1154.64 667.856C1152.96 670.928 1154.64 677.072 1158.72 681.424C1162.8 685.776 1164.72 692.944 1163.04 697.552C1160.64 703.696 1161.84 705.232 1167.6 702.928C1171.92 701.136 1176.48 702.416 1177.68 705.744C1178.88 709.072 1180.32 707.792 1180.32 702.928C1180.56 698.064 1178.64 693.968 1175.76 693.968C1173.12 693.968 1167.84 686.8 1164.48 677.84C1160.64 668.112 1156.8 664.272 1154.64 667.856Z" fill="black"/>
<path d="M1428.72 670.928C1425.6 679.632 1429.44 693.968 1434.96 693.968C1437.12 693.968 1438.32 687.056 1438.08 678.608C1437.6 662.224 1433.04 658.384 1428.72 670.928Z" fill="black"/>
<path d="M448.08 675.024C445.92 678.352 447.84 679.12 452.88 677.072C458.16 675.024 460.8 676.56 460.8 681.68C460.8 686.288 458.64 687.824 455.28 685.776C451.92 683.472 450.96 684.496 453.12 688.08C458.16 696.784 462.72 695.248 468.24 682.448C473.52 669.904 454.8 662.992 448.08 675.024Z" fill="black"/>
<path d="M1296 673.488C1289.52 677.84 1289.52 678.352 1296 678.608C1301.76 678.608 1302 679.632 1296.72 683.216C1291.92 686.288 1293.84 688.336 1303.2 690.896C1310.4 692.944 1317.6 693.2 1319.04 691.664C1320.48 690.128 1319.04 688.848 1315.68 688.848C1312.56 688.848 1311.12 686.544 1313.04 683.472C1315.2 679.632 1317.84 679.888 1322.16 683.728C1326.72 687.568 1329.12 687.056 1331.28 681.424C1334.16 673.232 1323.12 672.72 1311.6 680.4C1306.08 683.984 1303.68 681.168 1305.12 672.208C1305.84 667.344 1304.88 667.344 1296 673.488Z" fill="black"/>
<path d="M1202.64 702.672C1200 710.352 1198.8 710.608 1194.96 703.952C1192.32 699.6 1190.4 699.088 1190.4 702.416C1190.4 705.744 1188.96 712.656 1187.04 717.776C1184.16 725.968 1184.88 726.48 1191.6 720.336C1195.92 716.752 1201.92 714.96 1204.56 716.752C1207.68 718.8 1209.6 714.96 1209.6 707.024C1209.6 691.92 1207.2 690.384 1202.64 702.672Z" fill="black"/>
<path d="M203.76 710.608C202.08 715.472 198.72 718.288 196.32 716.752C193.92 715.216 192 717.52 192 722.128C192 726.736 193.92 729.04 196.56 727.504C198.96 725.968 202.32 726.736 204 729.808C205.68 732.624 209.52 734.928 212.64 734.928C216.24 734.928 215.52 732.88 211.2 729.808C205.92 725.968 205.44 723.664 209.76 720.592C213.36 718.288 213.84 714.192 211.2 709.328C207.6 703.184 206.4 703.184 203.76 710.608Z" fill="black"/>
<path d="M1001.52 713.168C1003.2 720.08 1008 724.688 1013.28 724.688C1022.88 724.688 1025.76 712.144 1017.6 706.768C1014.96 704.976 1012.8 707.536 1012.8 712.656C1012.8 720.592 1012.08 720.592 1005.84 711.632C999.12 701.904 998.88 702.16 1001.52 713.168Z" fill="black"/>
<path d="M1268.4 716.496C1265.04 724.176 1262.4 735.952 1262.4 742.608C1262.4 751.568 1260.48 754.384 1255.2 752.08C1246.56 748.752 1245.12 763.088 1253.52 768.72C1257.12 771.024 1257.84 770 1255.44 766.16C1253.04 761.808 1255.44 761.04 1264.8 763.6C1277.28 766.928 1277.52 766.416 1271.76 754.896C1266.24 743.632 1266.24 743.12 1273.68 749.776C1283.28 758.224 1285.2 756.944 1288.08 738.768C1289.52 730.32 1288.56 725.456 1285.2 725.968C1282.32 726.736 1278.72 721.616 1277.04 714.96L1274.16 702.672L1268.4 716.496Z" fill="black"/>
<path d="M1162.8 717.52C1159.44 721.104 1153.44 722.896 1149.6 721.36C1145.04 719.568 1142.4 721.616 1142.4 726.992C1142.4 731.6 1144.32 734.16 1146.72 732.624C1149.12 731.088 1152 732.112 1152.96 735.184C1153.92 738.512 1158.72 736.72 1164.96 731.088C1170.72 725.968 1173.84 719.056 1172.16 715.984C1169.76 712.144 1166.88 712.656 1162.8 717.52Z" fill="black"/>
<path d="M1382.4 722.64C1382.4 733.392 1403.52 749.776 1409.52 743.376C1411.44 741.584 1409.28 740.048 1405.2 740.048C1393.68 740.048 1390.8 731.6 1399.44 722.64C1406.4 715.216 1406.4 714.448 1399.44 714.448C1395.36 714.448 1392 717.264 1392 720.848C1391.76 725.2 1390.32 724.688 1387.2 719.568C1383.36 713.168 1382.64 713.68 1382.4 722.64Z" fill="black"/>
<path d="M1321.44 729.552C1322.64 735.184 1321.68 739.28 1318.8 738.512C1316.16 738 1313.04 740.304 1311.84 743.376C1309.68 750.032 1318.8 749.776 1329.12 742.864C1333.68 740.048 1334.88 740.304 1332.72 744.144C1327.68 752.336 1345.92 749.52 1353.6 740.816C1359.36 734.16 1358.88 733.648 1349.52 736.208C1342.56 738.256 1337.76 736.72 1336.08 732.368C1331.76 720.336 1318.56 717.776 1321.44 729.552Z" fill="black"/>
<path d="M978.24 728.528C973.68 729.552 968.64 734.928 966.96 740.56C965.52 745.936 962.16 749.008 959.76 747.472C957.12 745.936 955.2 750.288 955.2 757.456C955.2 767.184 957.12 769.744 962.88 767.44C967.68 765.392 968.4 763.088 965.28 760.784C960 757.456 975.12 740.304 988.56 734.416C997.2 730.832 989.04 725.968 978.24 728.528Z" fill="black"/>
<path d="M1233.12 736.72C1236.48 741.072 1237.92 747.216 1236.24 750.032C1231.68 757.712 1241.04 756.688 1247.04 748.752C1253.52 740.816 1248.72 732.88 1236.24 730.576C1228.32 729.04 1227.84 730.064 1233.12 736.72Z" fill="black"/>
<path d="M1404.48 754.128C1402.32 756.176 1398.48 757.968 1395.6 757.968C1392.72 757.968 1389.84 760.784 1389.12 764.624C1388.4 768.208 1389.12 768.464 1390.56 765.392C1392 761.808 1396.32 763.088 1402.08 768.72C1410.72 777.168 1411.2 776.912 1411.2 763.856C1411.2 749.52 1410.24 747.984 1404.48 754.128Z" fill="black"/>
<path d="M192.96 766.416C182.16 773.84 178.8 778.704 182.64 781.264C186.72 783.824 185.28 786.128 178.32 788.432C172.56 790.48 168 794.32 168 796.88C168 799.696 172.8 798.416 178.8 794.064C184.8 789.456 189.6 783.056 189.6 779.728C189.6 776.144 194.16 773.584 199.44 773.84C205.68 774.096 209.52 771.024 210 764.88C210.72 753.36 212.16 753.36 192.96 766.416Z" fill="black"/>
<path d="M1283.28 776.144C1265.76 783.056 1265.04 791.504 1282.08 787.92C1294.8 785.104 1297.2 785.872 1294.8 792.528C1292.88 797.904 1294.32 800.208 1299.84 799.184C1304.4 798.416 1308.48 794.832 1309.2 790.736C1311.12 780.24 1295.28 771.536 1283.28 776.144Z" fill="black"/>
<path d="M1341.12 775.632C1316.64 781.776 1315.2 784.848 1328.64 801.232C1338.24 813.008 1342.56 815.312 1347.6 810.704C1352.16 806.608 1352.64 804.048 1348.56 801.232C1345.44 799.184 1348.08 796.624 1355.52 795.088C1365.84 793.04 1367.04 794.064 1362.72 799.696C1357.2 806.608 1361.52 809.168 1376.4 806.864C1379.76 806.608 1382.4 809.68 1382.4 814.032C1382.4 824.272 1390.08 824.272 1393.92 814.032C1395.36 809.68 1399.2 807.632 1402.08 809.424C1405.92 811.984 1405.68 814.032 1401.36 816.848C1397.04 819.664 1398.24 822.48 1405.44 826.576C1420.08 834.768 1440 833.744 1440 824.528C1440 820.176 1438.32 817.36 1436.4 817.872C1429.92 819.664 1411.2 811.216 1411.2 806.352C1411.2 803.536 1406.88 801.488 1401.36 801.488C1396.08 801.488 1390.56 797.904 1388.88 793.808C1387.44 789.456 1381.92 786.128 1376.88 786.128C1371.84 786.128 1366.56 782.544 1364.88 778.448C1363.44 774.096 1360.8 771.024 1359.12 771.28C1357.44 771.536 1349.28 773.584 1341.12 775.632Z" fill="black"/>
<path d="M1009.2 789.712C996 794.832 1012.8 822.736 1026.24 818.128C1035.12 814.8 1027.92 806.608 1016.4 806.608C1006.56 806.608 1006.56 806.352 1014.96 799.696C1024.08 792.528 1020 785.616 1009.2 789.712Z" fill="black"/>
<path d="M926.4 801.232C926.4 808.656 929.04 810.704 936.72 808.912C949.68 806.352 954.48 801.488 943.92 801.488C939.6 801.488 936 799.184 936 796.368C936 793.552 933.84 791.248 931.2 791.248C928.56 791.248 926.4 795.6 926.4 801.232Z" fill="black"/>
<path d="M1077.84 800.72C1071.84 807.376 1069.68 807.376 1062.48 800.976C1055.28 794.832 1054.8 794.832 1058.16 800.976C1061.28 806.608 1060.32 807.632 1054.56 805.072C1049.04 802.768 1046.88 804.56 1047.36 810.704C1048.8 831.184 1046.4 836.304 1036.8 833.744C1030.32 831.952 1027.2 833.488 1027.2 838.864C1027.2 852.944 1019.28 852.944 1005.12 839.12C996.72 830.672 990.96 827.856 989.76 831.696C988.32 836.304 986.16 836.304 981.12 831.696C975.84 827.088 974.4 827.6 974.4 834.256C974.4 838.608 978.24 842.704 982.8 843.216C987.36 843.728 993.36 844.496 996 845.264C998.64 845.776 1002.96 846.8 1005.6 847.056C1008.24 847.568 1006.56 850.128 1002 853.2C997.44 856.016 993.6 860.368 993.6 862.928C993.6 865.232 997.44 868.56 1002 870.096C1006.56 871.632 1003.44 872.144 994.8 871.376C976.8 869.584 976.56 869.84 987.12 880.848C994.32 888.528 994.08 889.296 984.72 892.112C973.2 895.184 971.28 901.584 980.4 905.68C984 907.216 983.04 908.24 978 908.496C973.44 908.752 969.6 911.568 969.6 914.384C969.6 917.456 967.44 918.48 964.8 916.688C962.16 914.896 960 918.48 960 924.368C960 933.84 958.08 934.864 946.08 932.048C935.52 929.744 930.72 931.024 926.64 938.192C922.32 945.104 920.4 945.616 918.48 940.752C916.32 935.632 913.2 936.4 905.04 944.592C896.64 953.04 894.48 953.552 894.48 947.408C894.48 943.312 896.4 939.728 898.8 939.728C900.96 939.728 901.68 937.68 900.24 934.864C898.56 932.048 888.72 933.584 876.24 938.448C864.48 943.056 855.84 948.432 857.04 950.48C858.24 952.528 856.56 955.344 853.2 956.88C847.68 959.184 885.12 961.232 940.8 961.488C960.48 961.488 962.64 960.464 963.84 948.432C965.04 937.68 968.64 934.864 984.72 931.792C1001.76 928.72 1003.92 926.928 1002 916.432C1000.32 906.96 1002.96 902.864 1014.72 896.72C1022.88 892.368 1026.96 888.784 1023.6 888.528C1020.24 888.528 1017.6 886.736 1017.6 884.688C1017.6 877.264 1042.32 852.432 1046.64 855.504C1049.28 857.04 1051.2 853.712 1051.2 848.08C1051.2 841.168 1055.28 836.56 1062.72 834.512C1069.2 832.72 1075.44 827.088 1076.64 821.968C1077.84 816.848 1088.16 807.888 1099.68 802.256L1120.56 792.272L1102.8 792.784C1092.96 793.04 1081.68 796.624 1077.84 800.72Z" fill="black"/>
<path d="M1150.56 798.928C1156.08 803.28 1162.56 804.048 1169.76 800.976C1175.76 798.672 1180.8 798.416 1180.8 800.72C1180.8 803.024 1184.4 804.816 1188.72 804.816C1195.68 804.816 1195.68 804.304 1188.24 798.416C1183.44 794.832 1171.44 792.016 1160.88 792.272C1144.56 792.528 1143.12 793.296 1150.56 798.928Z" fill="black"/>
<path d="M1216.08 818.128C1216.08 826.064 1217.28 830.672 1218.72 828.112C1220.4 825.552 1226.4 820.688 1232.4 817.36C1238.4 814.032 1242.96 808.656 1242.72 805.072C1242.48 800.464 1241.76 800.464 1240.08 805.328C1238.64 808.912 1235.52 811.728 1232.88 811.728C1230.24 811.728 1229.52 809.68 1230.96 806.864C1232.64 804.304 1229.76 802.512 1224.96 802.768C1218.48 803.28 1216.08 807.632 1216.08 818.128Z" fill="black"/>
<path d="M10.3199 810.704C9.8399 814.544 7.4399 816.08 4.7999 814.288C-0.480101 810.704 -1.9201 838.608 3.1199 843.984C4.7999 846.032 9.5999 844.496 13.6799 841.168C19.6799 835.792 20.3999 836.56 18.2399 846.032C15.1199 858.832 24.2399 860.112 29.9999 847.568C32.3999 842.704 33.1199 845.008 31.9199 853.456C30.4799 866.512 30.7199 866.768 40.7999 859.856C51.5999 852.176 57.5999 854.736 57.5999 866.768C57.5999 870.608 55.1999 872.144 52.0799 870.096C48.4799 867.792 47.7599 868.816 50.1599 872.656C52.7999 877.264 55.1999 877.264 60.2399 872.912C63.8399 869.84 68.8799 868.56 71.5199 870.352C78.2399 874.704 83.5199 862.928 77.7599 856.784C74.8799 853.712 73.9199 847.824 75.5999 843.472C77.5199 838.352 76.5599 836.816 72.7199 839.376C69.8399 841.424 67.1999 840.4 67.1999 837.328C67.1999 834 64.5599 832.464 61.1999 833.744C57.8399 835.024 55.9199 839.12 56.8799 842.96C57.5999 847.056 56.6399 848.336 54.4799 846.032C52.3199 843.728 50.3999 838.096 50.3999 833.488C50.3999 828.88 43.4399 822.224 35.0399 818.64C21.5999 812.752 19.9199 812.752 22.3199 819.408C23.7599 823.76 22.7999 827.088 20.1599 827.088C17.2799 827.088 14.1599 821.968 12.9599 815.568C11.7599 809.168 10.5599 807.12 10.3199 810.704Z" fill="black"/>
<path d="M1278.48 820.432C1280.16 822.224 1277.04 829.136 1271.28 835.792C1265.52 842.192 1263.12 847.568 1266.24 847.568C1269.12 847.568 1273.92 842.96 1276.8 837.328C1279.68 831.696 1285.68 827.088 1290.24 827.088C1297.2 826.832 1297.44 826.32 1291.2 821.968C1283.04 816.336 1273.44 815.056 1278.48 820.432Z" fill="black"/>
<path d="M1355.52 827.856C1353.36 831.696 1354.32 832.464 1358.16 829.904C1362.72 826.832 1363.44 828.88 1360.56 837.84C1358.64 844.752 1355.28 850.896 1352.88 851.92C1350.72 852.688 1348.8 857.04 1348.8 861.136C1348.8 865.232 1346.88 867.28 1344.48 865.744C1342.32 864.208 1337.52 866.512 1334.4 870.608C1329.36 877.008 1330.08 878.288 1338.24 878.288C1354.8 878.288 1362.24 873.168 1359.84 862.928C1357.92 855.248 1359.6 853.968 1367.52 856.272C1373.04 857.808 1376.4 860.88 1375.2 862.928C1374 865.232 1375.68 866.768 1378.8 866.768C1398.48 866 1402.32 868.304 1399.2 879.568C1396.56 890.576 1396.56 890.832 1402.56 880.848C1405.92 875.216 1408.8 868.816 1409.28 866.768C1409.76 864.72 1410.24 861.648 1410.72 860.112C1410.96 858.576 1415.76 860.112 1421.28 863.184C1428.48 867.28 1430.64 867.28 1428.24 863.44C1426.32 860.112 1428.72 857.808 1433.76 857.552C1441.92 857.552 1441.92 857.04 1433.28 850.128C1428.24 846.032 1421.76 844.24 1418.88 846.288C1407.84 853.712 1364.88 852.432 1364.88 844.752C1364.88 840.656 1368.72 837.328 1373.28 837.328C1386.24 837.328 1388.4 828.624 1376.4 825.296C1361.28 820.944 1359.36 821.2 1355.52 827.856Z" fill="black"/>
<path d="M79.68 841.936C88.08 859.856 85.68 881.36 75.6 879.568C66.72 877.776 60.96 898.256 67.92 907.216C71.28 911.824 70.56 916.944 65.28 925.392C60.96 931.792 57.6 939.216 57.84 942.032C57.84 945.104 60.72 942.032 64.32 935.376C70.08 924.112 70.8 923.856 72.96 932.816C74.4 939.216 80.16 942.8 89.28 943.568C98.64 944.336 101.04 943.312 96.72 940.24C91.44 936.656 91.44 935.376 96.24 933.584C100.08 932.304 101.04 928.72 98.4 924.624C95.28 918.992 93.36 919.504 88.56 926.416C84.72 932.048 81.36 933.328 79.44 929.744C77.76 926.928 77.76 924.368 79.44 924.368C81.36 924.368 79.2 918.736 75.12 911.824C70.08 903.888 69.12 898 72.24 896.208C74.88 894.416 75.6 890.32 73.68 887.504C72 884.176 72.72 883.408 75.6 885.2C78.48 886.992 83.76 885.456 87.36 881.872C90.72 878.032 96.48 875.984 99.6 877.008C102.96 878.288 105.6 876.496 105.6 873.168C105.6 870.096 103.68 868.816 101.28 870.352C96.24 873.68 85.68 844.752 90.24 840.144C91.92 838.352 90.24 834.512 86.16 831.952C74.16 824.016 72.48 826.576 79.68 841.936Z" fill="black"/>
<path d="M933.84 832.72C935.04 834.768 941.52 835.792 948 835.024C954.72 834.256 960 835.792 960 838.352C960 840.912 962.16 841.68 964.8 839.888C975.6 832.72 968.4 826.832 950.64 827.856C940.32 828.624 932.64 830.672 933.84 832.72Z" fill="black"/>
<path d="M1166.4 837.072C1166.4 844.24 1162.8 849.616 1156.8 851.152C1151.52 852.688 1147.2 856.016 1147.2 858.32C1147.2 866 1156.32 863.44 1165.92 853.2C1170.96 847.824 1176.48 844.752 1177.92 846.288C1179.6 847.824 1180.8 846.8 1180.8 843.984C1180.8 840.912 1177.68 835.792 1173.6 832.208C1167.6 826.832 1166.4 827.6 1166.4 837.072Z" fill="black"/>
<path d="M1237.92 833.488C1237.44 837.072 1237.44 841.68 1237.92 843.728C1238.16 845.776 1236.24 847.568 1233.6 847.568C1230.96 847.568 1228.8 845.264 1228.8 842.704C1228.8 839.888 1225.68 838.864 1221.6 840.656C1217.76 842.192 1214.4 846.8 1214.4 850.896C1214.4 854.992 1216.56 857.04 1219.2 855.248C1225.44 851.152 1225.2 855.76 1218.96 868.304C1215.12 875.984 1215.6 878.288 1220.88 878.288C1224.72 878.288 1229.04 874.96 1230.48 871.12C1231.92 867.024 1237.92 862.672 1244.16 861.392L1255.2 859.088L1244.16 858.576C1231.92 857.808 1236 849.872 1254.72 838.864C1260.72 835.536 1261.92 832.464 1258.32 830.16C1255.2 828.112 1252.8 828.88 1252.8 831.952C1252.8 834.768 1250.4 837.328 1247.76 837.328C1244.88 837.328 1243.92 835.024 1245.6 832.208C1247.28 829.392 1246.32 827.088 1243.44 827.088C1240.8 827.088 1238.16 829.904 1237.92 833.488Z" fill="black"/>
<path d="M101.52 847.568C104.4 856.016 108.48 862.928 110.88 862.928C117.6 862.928 115.92 852.688 109.2 852.432C105.6 852.432 106.56 849.616 111.6 845.52C116.16 841.936 120 837.072 120 834.768C120 832.72 116.88 833.744 112.8 837.328C107.76 841.68 105.6 841.936 105.6 837.84C105.6 834.768 103.44 832.208 101.04 832.208C98.4 832.208 98.4 838.352 101.52 847.568Z" fill="black"/>
<path d="M122.88 845.52C117.12 861.648 119.52 872.912 128.16 869.584C133.2 867.536 134.16 865.488 130.56 864.208C127.44 862.928 124.8 859.856 124.8 857.04C124.8 854.224 126.96 853.456 129.6 855.248C132.24 857.04 133.2 854.992 131.52 850.64C129.6 845.008 131.52 843.728 139.92 845.776C149.04 847.824 149.76 847.312 144 842.96C133.68 835.28 126.24 836.048 122.88 845.52Z" fill="black"/>
<path d="M1310.4 850.128C1306.32 855.504 1306.08 857.808 1309.92 857.808C1312.8 857.808 1315.2 860.112 1315.2 862.672C1315.2 865.488 1312.08 866.512 1308 864.72C1304.16 863.184 1300.8 864.464 1300.8 867.536C1300.8 870.608 1303.92 873.168 1307.76 873.168C1312.32 873.168 1314 876.496 1312.56 882.128C1311.36 886.992 1313.76 883.152 1318.08 873.424C1323.12 861.392 1324.08 854.992 1320.48 853.712C1317.6 852.688 1316.4 849.616 1317.84 847.056C1322.16 839.632 1316.88 841.68 1310.4 850.128Z" fill="black"/>
<path d="M158.4 851.664C158.4 855.504 156.48 857.04 154.08 855.504C151.92 853.968 147.12 856.272 144 860.368C138.96 866.768 139.68 868.048 147.12 868.048C161.28 867.792 168.24 861.136 162.96 852.432C159.84 847.056 158.64 846.8 158.4 851.664Z" fill="black"/>
<path d="M175.92 850.896C174.24 852.944 172.8 857.808 172.8 861.904C172.8 866 169.68 872.144 165.6 875.216C156.96 882.128 154.08 904.656 161.28 907.472C164.64 908.496 166.08 904.144 165.36 896.464C163.68 880.08 170.64 874.96 177.12 887.76C179.76 893.136 181.2 898.256 180.24 899.28C179.28 900.56 185.76 901.84 194.88 902.608C204 903.376 211.2 901.584 211.2 898.512C211.2 895.44 208.56 894.672 205.2 896.72C201.84 898.768 202.8 896.208 206.88 890.576C214.8 880.592 214.08 868.048 205.68 868.048C203.04 868.048 202.32 870.096 203.76 872.656C206.88 878.032 193.92 893.648 186.24 893.648C183.6 893.648 182.64 890.32 184.08 886.224C185.52 881.872 185.04 877.52 182.88 875.984C180.72 874.704 180 867.536 181.2 860.368C183.6 847.568 181.92 844.752 175.92 850.896Z" fill="black"/>
<path d="M508.8 860.368C505.68 864.464 500.88 866.768 498.72 865.232C496.32 863.696 494.4 865.744 494.4 870.096C494.4 875.472 497.04 877.008 502.8 874.704C510.24 871.888 510.24 872.656 502.08 882.64C492.96 893.648 492.96 893.648 503.52 893.648C510.72 893.648 513.12 891.6 510.48 887.248C507.84 882.384 508.8 882.64 514.56 887.504C518.88 891.088 523.44 892.112 524.88 889.808C528 884.432 521.04 871.888 515.52 873.168C513.36 873.68 510.72 871.376 509.76 868.304C508.8 865.488 511.44 862.928 515.52 862.928C519.84 862.928 523.2 860.624 523.2 857.808C523.2 850.384 515.52 851.664 508.8 860.368Z" fill="black"/>
<path d="M764.16 861.904C759.36 867.024 752.4 870.352 748.56 869.328C744.72 868.56 746.4 871.376 752.4 876.24C764.64 885.712 766.8 894.928 756 890.32C750.72 888.272 748.8 890.832 748.8 899.792C748.8 906.448 747.12 914.384 745.2 916.944C743.28 919.76 746.64 916.176 752.88 909.008L764.16 896.208L761.76 908.24C759.84 916.688 760.8 919.248 765.6 917.456C769.2 915.92 773.28 917.456 774.48 920.784C775.68 924.112 776.4 910.288 775.92 889.808C775.68 869.328 774.72 852.688 774 852.688C773.28 852.688 768.96 856.784 764.16 861.904Z" fill="black"/>
<path d="M836.88 868.56C838.56 875.216 840 884.688 840 889.296C840 897.232 841.2 897.232 854.4 890.32C872.64 880.592 874.56 866 856.8 873.168C847.44 877.008 844.8 876.496 844.8 870.864C844.8 866.768 842.4 861.904 839.28 859.856C835.44 857.296 834.72 859.856 836.88 868.56Z" fill="black"/>
<path d="M228.24 873.936C230.16 880.592 229.68 883.408 226.56 881.616C221.52 878.288 213.84 893.136 218.4 897.744C219.6 899.28 220.8 897.744 220.8 894.416C220.8 891.088 224.16 888.528 228.24 888.528C232.32 888.528 234.48 890.832 232.8 893.648C231.12 896.464 234 898.768 239.04 898.768C247.92 898.768 248.16 898 240.72 880.848C232.56 861.392 222.96 856.016 228.24 873.936Z" fill="black"/>
<path d="M961.92 867.024C952.32 873.424 961.2 887.504 972 883.152C977.28 880.848 978.96 878.8 975.84 878.544C972.96 878.544 969.6 874.96 968.64 870.864C967.92 866.512 964.8 864.72 961.92 867.024Z" fill="black"/>
<path d="M137.52 879.568C138.96 881.872 133.2 882.384 125.28 880.848C116.64 879.312 110.4 880.336 110.4 883.408C110.4 886.224 116.16 888.528 123.12 888.528C130.08 888.528 138.72 892.624 142.56 897.488C146.4 902.352 148.08 903.632 146.4 900.048C144.72 896.464 145.2 893.648 147.6 893.648C149.76 893.648 151.44 889.552 151.44 884.432C151.44 879.312 148.08 875.472 143.28 875.472C138.72 875.472 136.08 877.264 137.52 879.568Z" fill="black"/>
<path d="M251.28 880.848C248.4 888.784 252.72 898.768 259.2 898.768C261.36 898.768 264.24 894.672 265.44 889.808C267.12 883.408 268.08 884.688 268.56 893.648C269.04 900.56 270.24 910.544 271.2 915.408C273.12 926.416 264.72 927.44 260.88 916.688C259.44 912.336 255.84 909.008 252.96 909.008C249.36 909.008 249.6 911.056 253.44 915.152C256.56 918.48 259.2 926.416 259.2 932.816C259.2 942.8 260.64 943.824 270 939.984C276 937.68 280.56 933.584 280.32 931.28C279.84 928.976 278.4 919.248 276.72 910.032C274.32 895.696 275.04 893.392 282 894.416C286.56 895.184 293.04 894.16 296.16 892.112C299.28 890.064 303.12 890.576 304.8 893.648C306.48 896.464 305.04 898.768 301.44 899.024C297.84 899.024 298.8 901.328 304.08 904.4C308.88 907.472 313.92 908.752 315.12 907.216C318 904.144 336 919.76 336 925.392C336 927.696 329.28 929.488 321.36 929.488C293.04 929.488 276.72 951.504 303.12 953.808C315.6 954.832 355.2 933.84 346.8 930.768C336.96 927.184 340.08 920.016 350.4 922.832C355.68 924.368 358.8 927.696 357.36 930C355.92 932.56 357.84 934.608 361.92 934.608C367.68 934.608 368.4 932.048 365.04 922.32C362.64 915.664 361.44 909.264 362.16 908.24C363.12 907.216 360.72 903.376 357.12 899.792C351.6 894.416 350.4 894.672 350.4 901.328C350.4 905.936 348.24 908.24 345.6 906.448C342.96 904.656 340.8 906.192 340.8 910.032C340.56 914.896 339.6 914.896 336.24 909.264C333.84 905.168 332.64 900.304 333.84 898.256C335.04 896.208 332.64 893.392 328.32 891.6C317.52 887.248 315.84 887.76 319.44 894.16C321.84 898 319.68 898 312.48 893.904C306.96 890.832 302.4 885.456 302.4 882.128C302.4 877.776 300.96 877.776 296.64 882.384C290.16 889.296 281.28 890.832 285.12 884.176C286.56 881.872 284.88 879.824 281.76 879.568C278.64 879.312 270.96 877.776 264.96 876.496C258 874.704 252.96 876.24 251.28 880.848Z" fill="black"/>
<path d="M1370.4 883.408C1360.8 890.32 1358.64 893.648 1363.92 893.648C1368.48 893.648 1375.92 894.928 1380.72 896.464C1388.88 899.024 1388.88 898.768 1381.68 892.88C1374 886.992 1374 885.968 1381.68 880.08C1394.16 869.84 1386.24 872.144 1370.4 883.408Z" fill="black"/>
<path d="M105.12 900.048C107.76 907.216 108.72 914.128 107.52 915.408C106.32 916.944 108.72 919.504 112.8 921.04C117.12 922.832 119.28 922.064 117.84 919.504C116.4 916.944 120 913.872 126 912.592C135.12 910.8 134.64 910.288 123.36 909.776C115.92 909.264 111.12 906.96 112.56 904.4C114 902.096 111.84 896.976 107.76 893.392C101.52 887.76 101.04 888.784 105.12 900.048Z" fill="black"/>
<path d="M28.8 901.328C23.76 907.728 21.36 907.984 14.88 902.608C8.16 896.976 7.92 897.232 13.68 905.168C19.44 912.848 19.44 914.128 12.96 914.128C8.88 914.128 4.56 911.312 3.12 907.728C1.68 903.888 0.719999 905.168 0.479999 910.288C0.239999 916.688 4.56 920.528 14.4 922.576C22.32 924.368 28.8 928.208 28.8 931.28C28.8 934.608 34.32 937.168 40.8 937.168C53.76 937.168 54.72 935.632 48.72 925.392C46.56 921.808 41.52 920.272 37.2 922.064C25.92 926.672 21.84 914.384 31.92 906.448C36.72 902.608 39.36 898.256 37.92 896.464C36.24 894.672 32.16 896.976 28.8 901.328Z" fill="black"/>
<path d="M1406.4 906.448C1400.88 921.808 1368 925.904 1368 911.312C1368 906.96 1365.84 904.656 1363.2 906.448C1360.32 908.24 1359.84 912.336 1361.76 915.664C1363.68 918.992 1358.88 916.432 1351.44 910.032C1344 903.888 1336.56 899.792 1335.12 901.328C1333.92 902.864 1336.8 907.472 1341.84 912.08C1347.12 916.432 1348.56 918.48 1345.2 916.944C1342.08 915.152 1335.12 916.176 1329.6 919.248C1324.08 922.32 1320 922.576 1320 920.016C1320 917.2 1315.68 916.432 1310.16 917.712C1304.88 919.248 1301.52 921.808 1302.72 923.088C1304.16 924.368 1301.76 928.976 1297.92 933.328C1288.8 943.056 1299.12 952.784 1308.96 943.824C1312.8 940.496 1315.2 940.496 1315.2 943.568C1315.2 955.344 1388.16 948.176 1392.48 935.888C1398.24 919.248 1401.84 921.808 1398.48 939.728C1395.36 956.368 1397.76 957.648 1424.64 952.016C1437.84 949.2 1446.24 929.488 1434.24 929.488C1432.08 929.488 1430.4 926.928 1430.4 924.112C1430.4 921.04 1432.56 920.016 1435.2 921.808C1437.84 923.6 1440 921.04 1440 916.176C1440 911.312 1438.56 908.752 1436.88 910.544C1435.2 912.336 1429.92 911.568 1425.12 908.752C1418.16 904.656 1416.96 905.68 1418.4 913.872C1419.6 920.528 1418.16 922.832 1413.6 921.04C1406.64 918.224 1409.28 903.888 1418.16 897.488C1421.52 894.928 1421.28 893.904 1417.2 893.648C1413.6 893.648 1408.8 899.28 1406.4 906.448Z" fill="black"/>
<path d="M885.84 912.336C884.64 916.176 886.08 919.504 889.44 919.76C892.56 920.016 900 920.784 906 921.296C917.76 922.832 920.4 917.2 910.8 910.8C901.2 904.4 888.48 905.168 885.84 912.336Z" fill="black"/>
<path d="M373.92 919.504C370.32 921.808 369.12 925.392 371.04 927.44C376.08 933.072 408 934.352 408 928.976C408 926.416 408.48 922.832 409.2 921.04C411.12 916.176 381.12 914.896 373.92 919.504Z" fill="black"/>
<path d="M542.88 918.992C536.88 922.832 537.12 925.648 544.32 937.168C554.64 954.064 557.04 952.272 552.72 931.024C550.32 918.48 547.92 915.408 542.88 918.992Z" fill="black"/>
<path d="M144 924.88C144 927.952 140.88 929.232 136.8 927.696C127.68 923.856 127.68 927.952 136.56 937.424C142.32 943.824 143.76 943.568 146.64 934.096C149.04 926.16 151.2 924.88 155.28 929.232C159.36 933.584 158.88 936.4 153.6 940.24C148.08 944.336 147.84 945.104 153.12 943.568C166.8 939.728 168.96 919.248 155.76 919.248C149.28 919.248 144 921.808 144 924.88Z" fill="black"/>
<path d="M722.64 949.712C717.84 955.088 709.68 960.72 703.92 961.744L693.6 964.048L704.4 967.888C713.28 970.96 714.24 973.264 709.92 981.712C707.04 987.344 706.08 992.976 707.52 994.768C708.96 996.304 711.6 993.232 713.52 987.856C715.44 982.48 720.48 975.312 724.56 971.984C730.56 966.864 730.56 965.584 725.28 965.584C720.72 965.328 721.92 962 729.12 955.6C734.88 950.224 737.76 944.336 735.36 942.8C732.96 941.264 727.2 944.336 722.64 949.712Z" fill="black"/>
<path d="M0 954.064C0.24 960.976 0.96 961.232 4.32 955.856C6.96 951.504 9.6 950.736 11.52 954.064C13.2 957.136 11.28 962.768 7.68 966.864C1.68 973.264 2.4 976.592 13.2 992.976C26.16 1012.43 71.52 1019.34 90 1004.75C93.84 1001.68 96 1001.94 96 1005.78C96 1009.1 106.08 1011.41 122.4 1011.41C147.84 1011.41 160.08 1004.75 138 1002.96C111.84 1000.66 78.72 994.256 74.16 990.672C71.52 988.368 62.88 986.576 54.96 986.576C34.08 987.088 10.32 976.336 19.2 970.448C23.04 967.888 24.48 964.304 22.8 962.256C20.88 960.208 21.12 956.112 23.52 953.04C26.64 949.2 23.52 947.152 13.92 946.384C3.6 945.616 0 947.408 0 954.064Z" fill="black"/>
<path d="M1276.8 964.816C1276.8 967.632 1273.68 968.912 1269.84 967.376C1265.04 965.328 1263.84 967.376 1265.76 975.056C1267.2 980.944 1270.32 985.808 1272.96 985.808C1275.36 985.808 1275.84 988.368 1273.92 991.696C1271.52 995.792 1267.68 994 1261.68 986.064C1256.88 979.664 1252.8 976.592 1252.8 978.896C1252.8 981.456 1246.8 984.016 1239.6 984.528C1232.4 985.296 1228.56 984.016 1231.2 981.968C1237.68 976.848 1239.36 965.328 1233.6 965.328C1231.2 965.328 1227.6 970.96 1226.16 977.616C1223.28 989.648 1204.32 999.632 1195.2 993.488C1193.04 991.952 1189.68 992.976 1188 996.048C1186.32 998.864 1189.44 1001.17 1194.96 1001.17C1200.24 1001.17 1204.8 1003.47 1204.8 1006.29C1204.8 1009.1 1206.96 1011.41 1209.6 1011.41C1212.24 1011.41 1213.92 1008.85 1213.2 1005.52C1211.52 997.328 1239.36 989.648 1243.68 997.072C1245.6 1000.4 1252.32 1003.22 1258.32 1003.73C1264.56 1004.24 1277.28 1005.78 1286.4 1007.31C1295.76 1008.85 1299.36 1009.1 1294.8 1007.82C1286.88 1005.78 1284.24 995.28 1286.16 974.8C1286.4 969.936 1284.48 964.816 1281.84 963.024C1278.96 960.976 1276.8 962 1276.8 964.816Z" fill="black"/>
<path d="M153.6 973.264C153.6 979.152 150.72 980.432 144 978.128C136.8 975.568 135.12 976.848 137.28 982.992C140.88 992.464 137.52 992.976 125.04 984.784C115.68 978.384 105.6 982.48 112.32 989.648C118.56 996.048 158.4 994.512 158.4 987.6C158.4 984.272 159.6 977.872 161.28 973.52C162.96 968.912 161.76 965.328 158.88 965.328C156 965.328 153.6 968.912 153.6 973.264Z" fill="black"/>
<path d="M901.2 970.96C888.24 978.896 891.12 984.528 908.4 984.272C935.04 984.016 946.32 989.904 940.56 1001.42C936.72 1009.36 937.2 1011.41 942.96 1011.41C947.52 1011.41 949.92 1007.57 948.96 1001.68C946.56 985.296 936.48 976.592 921.36 977.616C911.04 978.384 907.68 976.848 909.36 971.984C912.24 964.048 912 964.048 901.2 970.96Z" fill="black"/>
<path d="M992.88 979.152C1003.44 995.536 1003.44 995.536 993.84 1001.17C983.76 1006.8 982.32 1005.01 983.76 990.16C984 985.296 981.84 979.92 978.72 977.616C974.64 975.056 973.68 976.592 975.84 982.224C978 988.368 976.56 989.648 971.04 987.344C965.04 984.784 963.84 986.064 966.48 992.976C968.16 997.84 969.6 1003.47 969.6 1005.52C969.6 1007.31 982.8 1009.1 999.12 1009.36C1017.12 1009.62 1024.8 1008.08 1019.04 1005.78C1005.36 1000.4 1000.32 978.896 1013.76 983.504C1020.24 985.808 1022.4 985.04 1020.24 981.2C1018.56 978.128 1019.28 975.568 1022.16 975.568C1024.8 975.568 1027.2 973.52 1027.2 970.96C1027.2 968.4 1020 968.144 1010.88 970.448C1000.32 973.008 992.16 972.24 988.32 968.656C985.2 965.328 987.12 970.192 992.88 979.152Z" fill="black"/>
<path d="M865.2 976.336C865.92 979.664 861.84 985.04 856.32 988.112C850.8 991.184 847.2 996.048 848.16 999.12C849.12 1002.45 844.08 1004.5 835.44 1004.24C825.84 1003.98 821.52 1001.42 822.96 997.328C825.6 990.416 817.92 988.368 814.32 995.024C809.52 1003.22 818.88 1008.85 838.8 1010.38C857.76 1011.66 861.6 1008.85 859.92 995.28C859.68 993.488 863.76 990.928 869.04 989.392C874.08 987.856 877.2 988.88 875.76 991.44C874.32 994 875.28 996.048 878.16 996.048C880.8 996.048 882.72 990.16 882 983.248C881.52 974.8 878.16 970.448 872.64 970.448C867.84 970.448 864.48 973.264 865.2 976.336Z" fill="black"/>
<path d="M1331.04 980.688C1329.6 986.32 1326.48 989.648 1324.32 988.112C1321.92 986.576 1320 987.6 1320 990.416C1320 993.488 1313.52 994.768 1304.4 993.232C1290.96 990.928 1290.24 991.44 1299.6 995.792C1305.6 998.608 1310.4 1003.47 1310.4 1006.8C1310.4 1010.9 1312.32 1010.9 1317.6 1006.29C1321.68 1002.7 1324.8 1001.94 1325.04 1004.5C1325.04 1006.8 1328.16 1004.75 1331.76 999.632C1337.52 991.44 1338.96 991.184 1342.32 997.84C1346.88 1006.54 1377.6 1014.22 1377.6 1006.8C1377.6 1003.98 1373.04 1000.4 1367.76 998.608C1361.52 996.56 1358.64 992.208 1360.32 987.856C1362.24 982.224 1359.6 981.2 1348.08 983.504C1336.08 985.552 1333.68 984.784 1336.08 978.384C1337.52 974.032 1337.76 970.448 1336.08 970.448C1334.64 970.448 1332.48 975.056 1331.04 980.688Z" fill="black"/>
<path d="M1414.8 973.776C1418.16 975.312 1420.8 978.896 1420.8 981.968C1420.8 985.04 1419.36 986.064 1417.68 984.272C1412.64 978.896 1401.6 991.184 1401.6 1001.68C1401.6 1008.08 1404.96 1011.41 1411.2 1011.41C1416.48 1011.41 1420.8 1009.1 1420.8 1006.54C1420.8 1003.73 1417.68 1002.7 1413.6 1004.5C1403.04 1008.85 1404.72 999.632 1416 992.208C1427.76 984.272 1428.72 970.192 1417.2 970.96C1412.16 971.216 1411.2 972.24 1414.8 973.776Z" fill="black"/>
<path d="M1153.2 978.896C1149.84 980.432 1148.64 984.016 1150.32 987.088C1152.48 990.672 1148.88 991.184 1139.52 988.624C1118.4 982.736 1095.12 980.176 1105.44 984.784C1113.36 988.368 1113.36 989.392 1104 999.888C1096.32 1008.85 1095.6 1011.41 1101.36 1011.41C1105.2 1011.41 1110.72 1006.8 1113.6 1001.17C1116.48 995.28 1123.2 991.184 1129.44 991.44C1139.28 991.952 1139.28 992.208 1128 996.048L1116 1000.14L1128.72 1000.66C1135.92 1000.91 1142.4 1002.96 1143.6 1005.01C1144.8 1007.06 1145.04 1006.03 1144.08 1002.45C1141.92 992.976 1150.8 994.768 1157.04 1005.01C1161.36 1012.43 1161.84 1012.43 1159.92 1005.52C1157.76 998.096 1158.72 997.84 1171.92 1004.75C1179.84 1009.1 1187.52 1011.15 1189.2 1009.36C1190.64 1007.57 1189.44 1006.29 1186.32 1006.29C1177.68 1006.29 1179.84 991.952 1189.2 986.32C1197.12 981.2 1197.12 980.944 1189.2 980.944C1184.64 980.688 1180.8 982.992 1180.8 985.808C1180.8 988.624 1175.28 990.928 1168.32 990.928C1159.2 990.928 1156.56 988.88 1158.48 983.248C1160.16 978.896 1160.88 975.824 1160.16 976.08C1159.68 976.08 1156.56 977.616 1153.2 978.896Z" fill="black"/>
<path d="M1387.2 983.504C1387.2 989.648 1384.32 990.672 1376.4 988.112C1366.08 984.784 1366.08 985.296 1373.76 993.744C1380.48 1001.17 1383.12 1001.68 1389.36 996.304C1397.76 988.88 1399.44 975.568 1392 975.568C1389.36 975.568 1387.2 979.152 1387.2 983.504Z" fill="black"/>
<path d="M907.2 1000.66C907.2 1005.78 911.52 1008.85 918.72 1008.85C925.2 1008.85 929.28 1007.31 928.32 1005.52C927.12 1003.47 929.04 1000.66 932.4 999.12C935.76 997.584 933.36 997.584 926.88 999.12C920.4 1000.91 916.8 1000.14 918.48 997.328C919.92 994.768 918 992.72 914.16 992.72C910.32 992.72 907.2 996.304 907.2 1000.66Z" fill="black"/>
</svg>
